<?xml version="1.0" encoding="UTF-8" standalone="no"?>
<!DOCTYPE svg PUBLIC "-//W3C//DTD SVG 1.0//EN"
"http://www.w3.org/TR/2001/REC-SVG-20010904/DTD/svg10.dtd">
<!-- Created with Sodipodi ("http://www.sodipodi.com/") -->
<svg
   id="svg1044"
   sodipodi:version="0.33"
   xmlns="http://www.w3.org/2000/svg"
   xmlns:sodipodi="http://sodipodi.sourceforge.net/DTD/sodipodi-0.dtd"
   xmlns:xlink="http://www.w3.org/1999/xlink"
   width="80pt"
   height="100.0000pt"
   sodipodi:docbase="/home/lolo/cvs/monkey-bubble/pixmaps"
   sodipodi:docname="/home/lolo/cvs/monkey-bubble/pixmaps/left_monkey.svg">
  <defs
     id="defs1046" />
  <sodipodi:namedview
     id="base" />
  <g
     id="g1349">
  
  
  
  
  
  
  
  
  
  
  
  
  
  
  
  
  
  
  
  
  
  
  
  
  
  
  
  
  
  
  
  
  
  
  
  
  
  
  
  
  
  
  
  
  
  
  <g
   transform="matrix(5e-2,0,0,5e-2,0.140743,11.89627)"
   id="g645"
   style="font-size:12;fill:none;">
    <path
   style="fill-rule:evenodd;fill:#003366;"
   d="M1365,44l-22-9l-23-7l-26-5l-28-3l12,30l8,23l1,5l2,6l4,12l6,22l6,23l4,21      l4,22l2,20l2,21v18l-1,4v5v10l-2,18l-2,19l-4,16l-4,17l-6,16l-6,17l-9,14l-3,3l-2,4l-4,8l-10,13l-10,14l-13,12l-7,6l-6,7l-14,12      l-14,12l-17,10l-17,10l-18,9l-19,10l-21,8l-11,4l-10,5l-22,7l-22,8h-1l1,2l3,7l5,12l3,7l5,10l79,64l147-77l282-3l156,17      l-236,218l-9-10l-9-8l-19-15h-1l-12-8l-12-6l-24-11l-15-5l-5-2l-1,1l-1,3l-1,2v-2h1l1-3l-25-6l-24-3l-24-1l-23,2l-23,3l-22,7      l-21,9l-20,12l-8,30l-9,3l-7,3l-7,2l-5,2l-6-1l-4-1l-5-4l-3-10l1-12l3-18l3-10l5-10l-17-13l-10,3l-22,58l-12,2l-20,20l-22-47      l-12-1v-10l-17-11l-10,3l-15,33l-20,1l-14,26l-12-8l-6-4l-4-2l-5-3l-4-2l-3-2l-2-1l-3-2l-2-1l-6-2l-10-5l-10-4l-12-3l-8-6l-20-7      l-34-2h-39l-35,4l-35,8l-31,12l-31,15l-28,20l-27,22l-23,28l-7,47L248,717l56-32l546-92l21-7l94,21l12-79l-26-9l-23-8l-22-10      l-20-9l-20-11l-17-11l-16-13l-14-12l-14-15l-11-14l-11-16l-8-15l-8-17l-5-17l-4-19l-2-18l-5-38l-3-34l-3-32l-2-27l-2-25l-1-21      l-1-18l1-14l-18,3l-17,9l-16,13l-15,19l-16,22l-15,28l-14,32l-14,38l44,182l-202,62L216,620l9-2l-28,8l-92,49l-50,8l-35,36      l35,28l37,29l37,28l39,29l39,27l41,28l42,27l44,28l43,26l46,27l94,52l48,25l50,26l102,50l6,13l1,2l2,3l4,6l5,10l6,9l3,6l4,5l2,4      l1,1l2,2l7,6l4,2l8,4l11,7l13,8l17,11l5,3l1,1l-6-4l6,4l1,23l3,23l3,22l5,21l11,38l6,18l8,18l2,27l-40-21l-40-19l-41-17l-41-13      l-44-13l-44-9l-45-7l-23-3l-22-1l-17-3l-14,1l-11,1l-8,5l-6,5l-2,7v9l4,11l5,16l7,18l7,18l10,20l22,41l27,45l31,47l37,51l19,26      l22,28l22,28l25,30l-57,64l-7,28l-4,26l-4,23l-1,20l-1,16l1,13l2,10l4,8l10,17l11,16l11,13l13,12l13,7l14,7l14,3l16,2l12-10      l36,18l8-3l8-2l3-2l4-1l6-3l4-5l4-4l3-6l2-5l15,6l12-2l11-2l9-4l9-4l7-6l6-6l4-8l4-8l-15-38l-11-37l-9-37l-4-36l-2-17l-1-15      l-1-13l1-11l1-9l2-7l2-5l3-1l115-87l-2-13l-1-11l-1-4l-1-2l-2-4l-9-9l-8-5l-7-5l-9-3l-6,1l-6-3l-4,1l-13-3l-12-1l-6-1l-13,1      l-12,3l-12,5l-11,7l-13,9l-12,13l-105-104l36,6l8,1l9,2l18,4l32,6h3l4,1l8,2l16,4l27,4l13,2l14,3l23,4l23,4l19,2l17,2h7l8,1      l14,2l2-1h3h6h9v-1h1h2h4l2-1h3l7,5l11,5l13,1h7l9,1l8-2l10-1l21-3l23-6l27-7l13-6l15-5l31-11l16-8l18-7l37-15l39-19l20-10l22-9      l21-11l23-11l47-23l-27,39v14l-62,66l-26-1l-24,1l-23,3l-21,7l-21,7l-18,11l-18,11l-16,15l-11,12l-7,13l-5,12l-2,6v7v12l3,12      l6,12l9,12l99-14l20,16l19,19l18,21l17,23l15,23l14,27l13,28l13,31l21,87l12,2h6h3l4,1l2-1h3l6-1l12-3l4-4l2-2v-1h1h2l10-8l4-6      l2-3l3-2l4-6l2-3l3-2l8,8l8,5l8,2h9l8-4l10-6l9-10l10-12v-36l6,7l8,7l8,3l8,2l8-2l9-3l9-7l10-7l-1-4v-3v-6l-2-12l-4-14l-4-13      l-6-16l-4-8l-2-4l-1-2v-1l-2-3l-1-2l-2-4l-4-8l-2-3l-1-2l-2-4l-4-8l-12-19l-12-19l-14-21l-15-20l-17-22l-18-22l-19-24l-20-23      l246-268l1-13v-12l-1-11l-2-10l-4-10l-4-8l-12-13l-9-7l-9-5l-22-7l-14-3l-14-1h-15l-16,1l-386,185l-18-108v-20l3-4l4-3l8-6      l16-13l14-15l7-8l8-7l2-3l24-48l29-29l408-375l1-2v1l216-257l-6-35l-570-68h-2v-1l2-6l3-6l2-9l6-6l5-11l3-7l2-5l3-6v-3l1-2l2-4      v-3l1-2l2-4v-5v-5l1-7l2-9l1-11l2-12l2-15l4-15l2-18l1-16l-2-32l-3-16l-4-16l-5-16l-6-14l-16-29l-16-22l-18-18L1365,44z       M1387,86l-1-3l2,2l5,5l3,4l5,6l6,11l7,15l6,18l6,22l1,10l2,10v8l1,8l-1,6v6l-1,4l-1,2v3l-4,5l-2,5l-2,4l1,3l1,6l-1,13l-2,14      l-2,15l-3,14l-2,15l-9,28l-3,6l-2,7l-5,14l-7,12l-4,6l-2,3l-1,4l-8,12l-4,6l-2,3l-1,4l-19,24l-20,24l11,12l14,16l27-8l29-6l62-9      l65-6l34-1l36,1h35l37,2l38,2l40,4l39,4l41,6l86,15l-412,457l2-8l1-4l2-3l2-8l1-4l2-3v-5l1-4l2-8l1-16l-2-19l-3-17l-4-16l-5-15      v-1v1l257-281l-255-25l-233,27h-21l-14,15l-102,50v21v-21l-44-47l12-5l13-4l24-8l22-10l22-9l20-11l19-10l18-12l8-6l4-3l5-2l3-4      l4-3l8-6l14-13l13-14l12-13l10-15l9-14l8-16l3-8l4-7l5-18l4-17l2-18l2-17v-19l-1-10v-9l-2-20l-2-10l-1-5v-4l-5-22l-6-21l-7-22      l-8-21l-10-24l-6-12l-3-6l-2-5l-12-24l-7-12l-6-11l10,2l10,3l19,6l7,2l8,3l15,6l11,4l5,2l2,1l3,2h1l2,1l4,2L1387,86z M702,164      l23-30l-7,42l-3,20l-1,21l-2,18v19v18l2,19l1,16l3,17l7,31l4,14l6,14l13,27l15,23l8,11l10,11l21,19l11,8l13,9l12,7l14,7l29,13      l15,4l17,5l35,9v49l-115-39l-16,15l-47,3L238,675l-8,10l-14,2l-12,22l271,192l105,51l56,67l89,16l-3,24v1l-5,41v1l-92-49      L276,868L62,720l51-23l393-171l165-50l66,47l-2-7l-1-2l-1-2v-1l-2-5l-2-5l-4-9l-2-5l-1-4l-4-11l-4-12l-5-16l-2-11l-3-2l-5-8      l-2-7l-5-12l-5-12l-14-31l-9-30l-4-29v-28l4-29l8-28l12-27L702,164z M1082,817l-1-2l24-8l4,16l68,7h1l-2,8l-155,40l-137-31      l-134-72l29,2l27,4l24,4l23,7l19,7l18,9l14,10l13,12l111,3l7-60l15,53l15,8L1082,817z M840,852l-7,28l-60,10l-45,7l-11,14v34      l29,36l-5,14l-6,2h-2h-1v1l-2,2l-10,4l-6,1l-5,2l-10,1l-12-1l-6-2l-2-1h-1h-2l-12-4l-12-5l-17-14l-8-8l-6-9l-7-11l-5-12l-9-26      l-1-28l44-52l-4,20l19,12l7-8l1-1l2-1l18-22l38-4l38,2l38,6L840,852z M827,924l-1-18l59-5l61-3l64-1l66,4l67,8l70,13l9,2h4l5,2      l5,5l5,7l3,8l1,9l-1,9l-2,10l-4,11l-5,13l-11,8l-10,8l-11,6l-11,6l-13,4l-12,4l-13,2l-12,3h-15h-14l-16-2l-8-1h-7l-17-4l-16-4      l-5-2l-4-1l-8-2l-5-2l-4-1l-8-2l-17-7l10,12l4,5l2,2l1,1l2,2l8,7l3,2l4,3l26,11l13,4l14,4l26,4l26,2l24-3l26-6l24-10l12-6l13-6      l4-5l5-4l4-5l5-4l17,10l8,20l6,22l3,21l2,22l-3,20l-4,22l-8,22l-9,22l-16,18l-9,8l-10,9l-4,3l-28,15l-28,13l-8,2l-4,1l-3,2      l-14,5l-28,9l-30,4l-30,3h-16h-15l-16-1l-8-1h-7l-25-5l-24-7l-24-8l-22-9l-22-11l-21-13l-20-15l-19-15l-4-4l-23-22l-20-23l-8-20      l-5-22l-3-21l-1-22l2-21l7-44l7-22l9-22l-16-6l-18-31l56-4l6,61l5,9l13,18l7,7l9,7l9,5l10,4l11,3l12,2h11l13-1l13-2l15-3l31-10      l35-14l-10,2l-20,3l-17,3l-17,1l-14,1l-15-2l-12-2l-12-4l-10-4l-10-7l-8-7l-8-9l-5-10l-5-12l-3-12l-3-14V924z M1460,808h1l10,15      l9,17l5,18l4,20l-1,30l-18,26l-9,12l-8,11l-10,9l-5,4l-4,5l-18,16l-6,2h-2l-1,1l-2,2l-10,5l-10,4l-10,3l-22,2h-11l-10-1l-14,41      l-39-57l38-52l-30,10l-24-60l91-1l-41-13l-97-32l7-21l38-17l104,35l3,1l22-10l-80-41l96-31l15,10l15,12l13,12l12,13H1460z       M1209,794l41-39l124-16L1209,794z M1332,1070h1l3-3l-4,4l32-20l39-16l40-11h1l-1,1l-92,83l-6-14l-4-10l-3-5l-2-3l-4-5V1070z       M637,1490l-11-2l175,216l7,3l2-3l3-2l3-6l2-13l6-11l8-11l12-9l14-9l18-8l20-7l24-6l29,21l-12,3l-12,5l-14,7l-7,4l-6,6l-16,11      l-15,15l-9,7l-8,9l-17,19l12,156l8,50l5,33l-13,10l-26-24l-15-19l-2-3l-10,4l-9,49l-1,4l-10,4l-9,2l-8-2l-6-5l-7-10l-5-13l-4-16      l-2-20l-1-2h-15v52v7l-7,5l-40-29l-10-25l4-35v-1l2-13l4-42l40-84l11,15l4,10l5,9l6,7l7,6l7,3l8,2l8-1l10-1v-16l-1-2l-159-216      l-1-1l-2-2l-1-2l-2-2l-1-1l-2-2l-4-4l-3-4l-4-5l-3-4l-10-13l-6-7l-3-4l-2-3l-4-5l-3-4l-6-8l-14-17l-15-20l-12-18l-9-18l-6-16      l-4-16l-1-14l2-13l6-12l49,7l49,9l48,11l48,13l45,14l45,17l44,19l43,21l46,36l56-6l-32-22l9-1h44l-17-3l-15-3l-15-4l-13-4l-14-6      l-12-7l-12-8l-10-8l-40-114l-9-59l10,4l12,6l30,13l15,6l16,6l30,9l32,8l30,5l32,3l30,1h32l26-5l26-5l24-9l24-9l13,44l-1,167      l21-64l425-205l15,1l13,5l9,7l3,4l4,6l1,5l2,7v15l-3,17l-3,9l-3,11l-227,233l-37-2l96-144l21-11h13v-28l33-37v-24l-9-3l-38,9      l-14,15l-1,12l-40,26l-38,25l-78,46l-77,40l-38,18l-38,17l-8,3l8-4l-6,3h-1h-1l-65,22l-61,18l-13,1l-10,2l-9,1l-7,2h-7l-4,1h-5      l-123-27L637,1490z M1576,1806l-17-7l42,63l1,19l-25,26l-39-77l-4-7h-28l25,57l-14,46l-2,5l-18,4l-30-78l-14-34l-14-29l-16-30      l-14-26l-14-23l-13-19l-14-18l-14-12l-102,13l-9-8l-4-7v-1l-3-6v-5l4-10l9-12l7-6l9-5l29-26l17-5l18-3l16-3h17h15l16,2l15,2      l15,5l75,22l24,18l23,21l21,22l20,25l18,25l17,27l15,28l14,31l10,12l6,14v15l-1,8l-2,9l-13-4l-12-5l-12-6l-10-7l-21-18      L1576,1806z"
   id="path646" />

  </g>

  <g
   transform="matrix(5e-2,0,0,5e-2,0.140743,11.89627)"
   id="g647"
   style="font-size:12;fill:none;">
    <path
   style="fill-rule:evenodd;fill:#FFCCCC;"
   d="M1401,100l-5-6l-3-4l-5-5l-2-2l1,3l-6-4l-4-2l-2-1h-1l-3-2l-2-1l-5-2l-11-4      l-15-6l-8-3l-7-2l-19-6l-10-3l-10-2l6,11l7,12l12,24l2,5l3,6l6,12l10,24l8,21l7,22l6,21l5,22v4l1,5l2,10l2,20v9l1,10v19l-2,17      l-2,18l-4,17l-5,18l-4,7l-3,8l-8,16l-9,14l-10,15l-12,13l-13,14l-14,13l-8,6l-4,3l-3,4l-5,2l-4,3l-8,6l-18,12l-19,10l-20,11      l-22,9l-22,10l-24,8l-13,4l-12,5l44,47l102-50l14-15h21l60-68l-11-12l20-24l19-24l1-4l2-3l4-6l8-12l1-4l2-3l4-6l7-12l5-14l2-7      l3-6l9-28l2-15l3-14l2-15l2-14l1-13l-1-6l-1-3l2-4l2-5l4-5v-3l1-2l1-4v-6l1-6l-1-8v-8l-2-10l-1-10l-6-22l-6-18l-7-15L1401,100z"
   id="path648" />

  </g>

  <g
   transform="matrix(5e-2,0,0,5e-2,0.140743,11.89627)"
   id="g649"
   style="font-size:12;fill:none;">
    <path
   style="fill-rule:evenodd;fill:#CF7E2E;"
   d="M1349,498l-14-16l-60,68l233-27l255,25l-257,281l5,15l4,16l3,17l2,19l-1,16      l-2,8l-1,4v5l-2,3l-1,4l-2,8l-2,3l-1,4l-2,8l412-457l-86-15l-41-6l-39-4l-40-4l-38-2l-37-2h-35l-36-1l-34,1l-65,6l-62,9l-29,6      L1349,498z"
   id="path650" />

  </g>

  <g
   transform="matrix(5e-2,0,0,5e-2,0.140743,11.89627)"
   id="g651"
   style="font-size:12;fill:none;">
    <path
   style="fill-rule:evenodd;fill:#FFCCCC;"
   d="M725,134l-23,30l-18,26l-12,27l-8,28l-4,29v28l4,29l9,30l14,31l5,12l5,12l2,7      l5,8l3,2l2,11l5,16l4,12l4,11l1,4l2,5l4,9l2,5l2,5v1l1,2l1,2l82,45l16-15l115,39v-49l-35-9l-17-5l-15-4l-29-13l-14-7l-12-7      l-13-9l-11-8l-21-19l-10-11l-8-11l-15-23l-13-27l-6-14l-4-14l-7-31l-3-17l-1-16l-2-19v-18v-19l2-18l1-21l3-20L725,134z"
   id="path652" />

  </g>

  <g
   transform="matrix(5e-2,0,0,5e-2,0.140743,11.89627)"
   id="g653"
   style="font-size:12;fill:none;">
    <path
   style="fill-rule:evenodd;fill:#CF7E2E;"
   d="M735,516l2,7l-66-47l-165,50L113,697l163,171l349,185L475,901L204,709l12-22      l14-2l8-10l532-111l47-3L735,516z"
   id="path654" />

  </g>

  <g
   transform="matrix(5e-2,0,0,5e-2,0.140743,11.89627)"
   id="g655"
   style="font-size:12;fill:none;">
    <path
   style="fill-rule:evenodd;fill:#89541F;"
   d="M722,1059l3-24l-89-16l-56-67l-105-51l150,152l92,49v-1l5-41V1059z"
   id="path656" />

  </g>

  <g
   transform="matrix(5e-2,0,0,5e-2,0.140743,11.89627)"
   id="g657"
   style="font-size:12;fill:none;">
    <path
   style="fill-rule:evenodd;fill:#89541F;"
   d="M276,868L113,697l-51,23L276,868z"
   id="path658" />

  </g>

  <g
   transform="matrix(5e-2,0,0,5e-2,0.140743,11.89627)"
   id="g659"
   style="font-size:12;fill:none;">
    <path
   style="fill-rule:evenodd;fill:#CF7E2E;"
   d="M1081,815l1,2l-17,17l-15-8l-15-53l-7,60l-111-3l-13-12l-14-10l-18-9l-19-7      l-23-7l-24-4l-27-4l-29-2l134,72l137,31l155-40l1-8l-68-7l-4-16L1081,815z"
   id="path660" />

  </g>

  <g
   transform="matrix(5e-2,0,0,5e-2,0.140743,11.89627)"
   id="g661"
   style="font-size:12;fill:none;">
    <path
   style="fill-rule:evenodd;fill:#EB9494;"
   d="M833,880l7-28l-40-13l-38-6l-38-2l-38,4l-18,22l105,33L833,880z"
   id="path662" />

  </g>

  <g
   transform="matrix(5e-2,0,0,5e-2,0.140743,11.89627)"
   id="g663"
   style="font-size:12;fill:none;">
    <path
   style="fill-rule:evenodd;fill:#FFCCCC;"
   d="M728,897l45-7l-105-33l-2,1l-1,1l-7,8l-58,48l9,26l5,12l7,11l6,9l8,8l17,14      l12,5l12,4h2h1l2,1l6,2l12,1l10-1l5-2l6-1l10-4l2-2v-1h1h2l6-2l5-14l-29-36v-34L728,897z"
   id="path664" />

  </g>

  <g
   transform="matrix(5e-2,0,0,5e-2,0.140743,11.89627)"
   id="g665"
   style="font-size:12;fill:none;">
    <path
   style="fill-rule:evenodd;fill:#EB9494;"
   d="M643,835l-44,52l1,28l58-48l-19-12L643,835z"
   id="path666" />

  </g>

  <g
   transform="matrix(5e-2,0,0,5e-2,0.140743,11.89627)"
   id="g667"
   style="font-size:12;fill:none;">
    <path
   style="fill-rule:evenodd;fill:#FFFFFF;"
   d="M826,906l1,18l3,11l5,11l5,9l7,10l15,16l19,13l21,9l25,7l27,3h15h17l10-2l17,7      l26,2l25,2h23h21l19-2l8-2l4-1h5l15-4l3-2l4-1l8-2l5-4l6-3l9-8v-2l1-1l2-2l4-4l7-10l3-12l3-12v-14l-1-14l-70-13l-67-8l-66-4      l-64,1l-61,3L826,906z M1020,930l9-6l11-2l12,3l7,5l3,3l3,5l2,11l-1,4l-1,2v3l-3,4l-2,2h-1v1v2l-5,4l-8,3l-6,1l-11-2l-9-6l-4-5      l-2-4l-2-5v-4l2-11l2-5L1020,930z M956,911l5-1h6l7,2l6,3l7,6l8,11l2,6l1,8l-1,6l-2,7l-8,12l-7,4l-6,3l-7,2l-6,1h-5l-12-4l-9-6      l-9-12l-3-7l1-6l-1-8l3-6l9-11l9-8L956,911z"
   id="path668" />

  </g>

  <g
   transform="matrix(5e-2,0,0,5e-2,0.140743,11.89627)"
   id="g669"
   style="font-size:12;fill:none;">
    <path
   style="fill-rule:evenodd;fill:#003366;"
   d="M1040,922l-11,2l-9,6l-4,3l-2,5l-2,11v4l2,5l2,4l4,5l9,6l11,2l6-1l8-3l5-4v-2      v-1h1l2-2l3-4v-3l1-2l1-4l-2-11l-3-5l-3-3l-7-5L1040,922z"
   id="path670" />

  </g>

  <g
   transform="matrix(5e-2,0,0,5e-2,0.140743,11.89627)"
   id="g671"
   style="font-size:12;fill:none;">
    <path
   style="fill-rule:evenodd;fill:#003366;"
   d="M961,910l-5,1l-12,2l-9,8l-9,11l-3,6l1,8l-1,6l3,7l9,12l9,6l12,4h5l6-1l7-2      l6-3l7-4l8-12l2-7l1-6l-1-8l-2-6l-8-11l-7-6l-6-3l-7-2H961z"
   id="path672" />

  </g>

  <g
   transform="matrix(5e-2,0,0,5e-2,0.140743,11.89627)"
   id="g673"
   style="font-size:12;fill:none;">
    <path
   style="fill-rule:evenodd;fill:#FFCCCC;"
   d="M758,960l16,6l-9,22l-7,22l-7,44l-2,21l1,22l3,21l5,22l8,20l20,23l23,22l4,4      l46,16l49,13l49,9l52,6l51,2l54-2l54-5l57-8l4-3l10-9l9-8l16-18l9-22l8-22l4-22l3-20l-2-22l-3-21l-6-22l-8-20l-17-10l-5,4l-4,5      l-5,4l-4,5l-13,6l-12,6l-24,10l-26,6l-24,3l-26-2l-26-4l-14-4l-13-4l-26-11l-4-3l-3-2l-8-7l-2-2l-1-1l-2-2l-4-5l-10-12l-35,14      l-31,10l-15,3l-13,2l-13,1h-11l-12-2l-11-3l-10-4l-9-5l-9-7l-7-7l-13-18l-5-9l-6-61l-56,4L758,960z M1207,1181l-1,1v20l-14,5      l-14,4l-15,2h-8h-4h-2h-1v1l-2-1h-1h-2h-4h-8l-16-3l-18-5l-5-2l-4-1l-8-2l25-21l-2-6l6-1h7l6-1h7l12-2l2-1h3h6l4-2l2-1h3l8-3      l7-4l7-4l-5-7l-5-5l-8-5l-9-2l-13-2h-13h-15l-17,2l1-9l14-7l15-4l28-4l13-1l14,2l26,8l4,8l1,4l2,5l2,8v4v2v1l1,2h-1v1v2v4l-2,7      l-4,6l-2,1l-1,2L1207,1181z M911,1164l-10,7l19,21l-63,1l-21-10l-7-5l-5-4l-5-6l-1-5l-1-6l3-5l-6-8l-4-6l-1-5v-12l4-14l4-8l6-7      l8-6l11-3h12l15,3l15,5l18,8l19,10l22,14l-32,10l-8-17l-20-3l-16-1h-13l-9,3l-7,2l-3,5v6l4,9L911,1164z"
   id="path674" />

  </g>

  <g
   transform="matrix(5e-2,0,0,5e-2,0.140743,11.89627)"
   id="g675"
   style="font-size:12;fill:none;">
    <path
   style="fill-rule:evenodd;fill:#003366;"
   d="M1206,1182l1-1l2-4l1-2l2-1l4-6l2-7v-4v-2v-1h1l-1-2v-1v-2v-4l-2-8l-2-5l-1-4      l-4-8l-26-8l-14-2l-13,1l-28,4l-15,4l-14,7l-1,9l17-2h15h13l13,2l9,2l8,5l5,5l5,7l-7,4l-7,4l-8,3h-3l-2,1l-4,2h-6h-3l-2,1l-12,2      h-7l-6,1h-7l-6,1l2,6l3,13l21,1l24-1l25-4L1206,1182z"
   id="path676" />

  </g>

  <g
   transform="matrix(5e-2,0,0,5e-2,0.140743,11.89627)"
   id="g677"
   style="font-size:12;fill:none;">
    <path
   style="fill-rule:evenodd;fill:#EB9494;"
   d="M1108,1192l-3-13l-25,21l8,2l4,1l5,2l18,5l16,3h8h4h2h1l2,1v-1h1h2h4h8l15-2      l14-4l14-5v-20l-28,6l-25,4l-24,1L1108,1192z"
   id="path678" />

  </g>

  <g
   transform="matrix(5e-2,0,0,5e-2,0.140743,11.89627)"
   id="g679"
   style="font-size:12;fill:none;">
    <path
   style="fill-rule:evenodd;fill:#003366;"
   d="M901,1171l10-7l-72-27l-4-9v-6l3-5l7-2l9-3h13l16,1l20,3l8,17l32-10l-22-14      l-19-10l-18-8l-15-5l-15-3h-12l-11,3l-8,6l-6,7l-4,8l-4,14v12l1,5l4,6l6,8l10,8l7,3l9,4l20,6l11,2l13,3L901,1171z"
   id="path680" />

  </g>

  <g
   transform="matrix(5e-2,0,0,5e-2,0.140743,11.89627)"
   id="g681"
   style="font-size:12;fill:none;">
    <path
   style="fill-rule:evenodd;fill:#EB9494;"
   d="M920,1192l-19-21l-11,7l-13-3l-11-2l-20-6l-9-4l-7-3l-10-8l-3,5l1,6l1,5l5,6      l5,4l7,5l21,10L920,1192z"
   id="path682" />

  </g>

  <g
   transform="matrix(5e-2,0,0,5e-2,0.140743,11.89627)"
   id="g683"
   style="font-size:12;fill:none;">
    <path
   style="fill-rule:evenodd;fill:#FE775A;"
   d="M827,924v14l3,14l3,12l5,12l5,10l8,9l8,7l10,7l10,4l12,4l12,2l15,2l14-1l17-1      l17-3l20-3h-17h-15l-27-3l-25-7l-21-9l-19-13l-15-16l-7-10l-5-9l-5-11L827,924z"
   id="path684" />

  </g>

  <g
   transform="matrix(5e-2,0,0,5e-2,0.140743,11.89627)"
   id="g685"
   style="font-size:12;fill:none;">
    <path
   style="fill-rule:evenodd;fill:#FE775A;"
   d="M1222,924l-9-2l1,14v14l-3,12l-3,12l-7,10l-4,4l-2,2l-1,1v2l-9,8l-6,3l-5,4      l-8,2l-4,1l-3,2l-15,4h-5l-4,1l-8,2l-19,2h-21h-23l-25-2l-26-2l8,2l4,1l5,2l8,2l4,1l5,2l16,4l17,4h7l8,1l16,2h14h15l12-3l13-2      l12-4l13-4l11-6l11-6l10-8l11-8l5-13l4-11l2-10l1-9l-1-9l-3-8l-5-7l-5-5l-5-2H1222z"
   id="path686" />

  </g>

  <g
   transform="matrix(5e-2,0,0,5e-2,0.140743,11.89627)"
   id="g687"
   style="font-size:12;fill:none;">
    <path
   style="fill-rule:evenodd;fill:#EB9494;"
   d="M813,1209l19,15l20,15l21,13l22,11l22,9l24,8l24,7l25,5h7l8,1l16,1h15h16l30-3      l30-4l28-9l14-5l3-2l4-1l8-2l28-13l28-15l-57,8l-54,5l-54,2l-51-2l-52-6l-49-9l-49-13L813,1209z"
   id="path688" />

  </g>

  <g
   transform="matrix(5e-2,0,0,5e-2,0.140743,11.89627)"
   id="g689"
   style="font-size:12;fill:none;">
    <path
   style="fill-rule:evenodd;fill:#FFCCCC;"
   d="M1461,808h-1H1461l-12-13l-13-12l-15-12l-15-10l-96,31l80,41l-22,10l-3-1      l-52,35l41,13l-37,51l-38,52l39,57l14-41l10,1h11l22-2l10-3l10-4l10-5l2-2l1-1h2l6-2l18-16l4-5l5-4l10-9l8-11l9-12l18-26l1-30      l-4-20l-5-18l-9-17L1461,808z"
   id="path690" />

  </g>

  <g
   transform="matrix(5e-2,0,0,5e-2,0.140743,11.89627)"
   id="g691"
   style="font-size:12;fill:none;">
    <path
   style="fill-rule:evenodd;fill:#EB9494;"
   d="M1223,824l-7,21l97,32l52-35l-104-35L1223,824z"
   id="path692" />

  </g>

  <g
   transform="matrix(5e-2,0,0,5e-2,0.140743,11.89627)"
   id="g693"
   style="font-size:12;fill:none;">
    <path
   style="fill-rule:evenodd;fill:#EB9494;"
   d="M1263,891l24,60l30-10l37-51L1263,891z"
   id="path694" />

  </g>

  <g
   transform="matrix(5e-2,0,0,5e-2,0.140743,11.89627)"
   id="g695"
   style="font-size:12;fill:none;">
    <path
   style="fill-rule:evenodd;fill:#CF7E2E;"
   d="M1250,755l-41,39l165-55L1250,755z"
   id="path696" />

  </g>

  <g
   transform="matrix(5e-2,0,0,5e-2,0.140743,11.89627)"
   id="g697"
   style="font-size:12;fill:none;">
    <path
   style="fill-rule:evenodd;fill:#89541F;"
   d="M1364,1051l-32,20l4,5l2,3l3,5l4,10l6,14l92-83v-1l-40,11L1364,1051z"
   id="path698" />

  </g>

  <g
   transform="matrix(5e-2,0,0,5e-2,0.140743,11.89627)"
   id="g699"
   style="font-size:12;fill:none;">
    <path
   style="fill-rule:evenodd;fill:#AE7C2B;"
   d="M1444,1024h-1v1L1444,1024z"
   id="path700" />

  </g>

  <g
   transform="matrix(5e-2,0,0,5e-2,0.140743,11.89627)"
   id="g701"
   style="font-size:12;fill:none;">
    <path
   style="fill-rule:evenodd;fill:#CF7E2E;"
   d="M626,1488l11,2l-42-54l327,105l123,27h5l4-1h7l7-2l9-1l10-2l13-1l61-18l65-22      l-4-12l1-167l-173,33l-200-51l40,114l10,8l12,8l12,7l14,6l13,4l15,4l15,3l17,3h-44l-9,1l32,22l-56,6l-46-36l-43-21l-44-19      l-45-17l-45-14l-48-13l-48-11l-49-9l-49-7l-6,12l-2,13l1,14l4,16l6,16l9,18l12,18l15,20l14,17l6,8l3,4l4,5l2,3l3,4l6,7l10,13      l3,4l4,5l3,4l4,4l2,2l1,1l2,2l1,2l2,2l1,1l176,172l18-43l-7-3L626,1488z"
   id="path702" />

  </g>

  <g
   transform="matrix(5e-2,0,0,5e-2,0.140743,11.89627)"
   id="g703"
   style="font-size:12;fill:none;">
    <path
   style="fill-rule:evenodd;fill:#89541F;"
   d="M595,1436l42,54l285,51L595,1436z"
   id="path704" />

  </g>

  <g
   transform="matrix(5e-2,0,0,5e-2,0.140743,11.89627)"
   id="g705"
   style="font-size:12;fill:none;">
    <path
   style="fill-rule:evenodd;fill:#FFCCCC;"
   d="M668,1846l-4,42l-1,6l52,85v-52h15l1,2l52,56l9-49l10-4l2,3h49l-8-50l-12-156      l17-19l8-9l9-7l15-15l16-11l6-6l7-4l14-7l12-5l12-3l-29-21l-24,6l-20,7l-18,8l-14,9l-12,9l-8,11l-6,11l-2,13l-3,6l-3,2l-2,3      l-18,43l-17,44l1,2v16l-10,1l-8,1l-8-2l-7-3l-7-6l-6-7l-5-9l-4-10l-11-15L668,1846z"
   id="path706" />

  </g>

  <g
   transform="matrix(5e-2,0,0,5e-2,0.140743,11.89627)"
   id="g707"
   style="font-size:12;fill:none;">
    <path
   style="fill-rule:evenodd;fill:#EB9494;"
   d="M662,1901v1l-4,35l10,25l40,29l7-5v-7l-52-85L662,1901z"
   id="path708" />

  </g>

  <g
   transform="matrix(5e-2,0,0,5e-2,0.140743,11.89636)"
   id="g709"
   style="font-size:12;fill:none;">
    <path
   style="fill-rule:evenodd;fill:#CF7E2E;"
   d="M1596,1311l9,3v24l-33,37v28h-13l-21,11l-96,144l37,2l227-233l3-11l3-9l3-17      v-15l-2-7l-1-5l-4-6l-3-4l-9-7l-13-5l-15-1l-425,205l-21,64l5,12h1l6-3v1l38-17l38-18l77-40l78-46l38-25l40-26l1-12l14-15      L1596,1311z"
   id="path710" />

  </g>

  <g
   transform="matrix(5e-2,0,0,5e-2,0.140743,11.89636)"
   id="g711"
   style="font-size:12;fill:none;">
    <path
   style="fill-rule:evenodd;fill:#EFBA5A;"
   d="M1234,1518l-8,4l8-3V1518z"
   id="path712" />

  </g>

  <g
   transform="matrix(5e-2,0,0,5e-2,0.140743,11.89636)"
   id="g713"
   style="font-size:12;fill:none;">
    <path
   style="fill-rule:evenodd;fill:#89541F;"
   d="M1210,1298l-24,9l-24,9l-26,5l-26,5h-32l-30-1l-32-3l-30-5l-32-8l-30-9l-16-6      l-15-6l-30-13l-12-6l-10-4l9,59l200,51l173-33L1210,1298z"
   id="path714" />

  </g>

  <g
   transform="matrix(5e-2,0,0,5e-2,0.140743,11.89636)"
   id="g715"
   style="font-size:12;fill:none;">
    <path
   style="fill-rule:evenodd;fill:#89541F;"
   d="M790,1750l-176-172l159,216L790,1750z"
   id="path716" />

  </g>

  <g
   transform="matrix(5e-2,0,0,5e-2,0.140743,11.89636)"
   id="g717"
   style="font-size:12;fill:none;">
    <path
   style="fill-rule:evenodd;fill:#EB9494;"
   d="M853,1935h-49l15,19l26,24l13-10L853,1935z"
   id="path718" />

  </g>

  <g
   transform="matrix(5e-2,0,0,5e-2,0.140743,11.89636)"
   id="g719"
   style="font-size:12;fill:none;">
    <path
   style="fill-rule:evenodd;fill:#EB9494;"
   d="M782,1989l1-4l-52-56l2,20l4,16l5,13l7,10l6,5l8,2l9-2L782,1989z"
   id="path720" />

  </g>

  <g
   transform="matrix(5e-2,0,0,5e-2,0.140743,11.89636)"
   id="g721"
   style="font-size:12;fill:none;">
    <path
   style="fill-rule:evenodd;fill:#FFCCCC;"
   d="M1559,1799l17,7l10,3l10,4l8,3l9,4h3l4,1l7,2h2h1l2,1l6,2v-1h1h2h4l2-2v-1h1h2      v-3l1-2l-1-4v-3l-14-31l-15-28l-17-27l-18-25l-20-25l-21-22l-23-21l-24-18l-75-22l-15-5l-15-2l-16-2h-15h-17l-16,3l-18,3l-17,5      l-29,26l-9,5l-7,6l-9,12l-4,10v5l3,6v1l124-27l19,59l13,19l14,23l14,26l16,30l36,15l42,117l14-46l-25-57h28l4,7l64,51l-1-19      L1559,1799z"
   id="path722" />

  </g>

  <g
   transform="matrix(5e-2,0,0,5e-2,0.140743,11.89636)"
   id="g723"
   style="font-size:12;fill:none;">
    <path
   style="fill-rule:evenodd;fill:#EB9494;"
   d="M1515,1931l2-5l-42-117l-36-15l14,29l14,34l30,78L1515,1931z"
   id="path724" />

  </g>

  <g
   transform="matrix(5e-2,0,0,5e-2,0.140743,11.89636)"
   id="g725"
   style="font-size:12;fill:none;">
    <path
   style="fill-rule:evenodd;fill:#EB9494;"
   d="M1538,1830l39,77l25-26L1538,1830z"
   id="path726" />

  </g>

  <g
   transform="matrix(5e-2,0,0,5e-2,0.140743,11.89636)"
   id="g727"
   style="font-size:12;fill:none;">
    <path
   style="fill-rule:evenodd;fill:#EB9494;"
   d="M1576,1806l19,22l21,18l10,7l12,6l12,5l13,4l2-9l1-8v-15l-6-14l-10-12v3l1,4      l-1,2v3h-2h-1v1l-2,2h-4h-2h-1v1l-6-2l-2-1h-1h-2l-7-2l-4-1h-3l-9-4l-8-3l-10-4L1576,1806z"
   id="path728" />

  </g>

  <g
   transform="matrix(5e-2,0,0,5e-2,0.140743,11.89636)"
   id="g729"
   style="font-size:12;fill:none;">
    <path
   style="fill-rule:evenodd;fill:#EB9494;"
   d="M1382,1696l-19-59l-124,27l4,7l9,8l102-13l14,12L1382,1696z"
   id="path730" />

  </g>

  <g
   transform="matrix(5e-2,0,0,5e-2,0.140743,11.89636)"
   id="g731"
   style="font-size:12;fill:none;">
    <path
   style="fill-rule:evenodd;fill:#000000;"
   d="M1380,733v1l-1,3l1-3l1-1H1380z"
   id="path732" />

  </g>

  <g
   transform="matrix(5e-2,0,0,5e-2,0.140743,11.89636)"
   id="g733"
   style="font-size:12;fill:none;">
    <path
   style="fill-rule:evenodd;fill:#473386;"
   d="M1379,737h-1v2L1379,737z"
   id="path734" />

  </g>

  <g
   transform="matrix(5e-2,0,0,5e-2,0.140743,11.89636)"
   id="g735"
   style="font-size:12;fill:none;">
    <path
   style="fill-rule:evenodd;fill:#003366;"
   d="M1048,1861l-24,24v38l66,37l31-5l29-2l27-2l26,1l23,1l23,4l20,4l19,7l21,23      l1,37l-68,69l1,75l18,12l18,10l16,6l8,1h4h2h1l2,1v-1h1h2h4l8-1l3-2l4-1l8-3l14-10l14-12l9-15l5-10l4-9l3-7l3-6l3-6l5-23l4-22      l2-31l-1-29l-4-28l-7-26l-11-26l-14-24l-18-23l-21-20l-10-9l-8-7l-40-15l-19-6l-17-4l-17-5l-15-3l-15-3l-12-1l-13-2h-11h-11      l-8,2l-16,5l-10,9L1048,1861z M1059,1914l-5-3l-1-12l3-7l5-6l15-14l11-8l13-7h25l24,1l44,5l20,2l19,4l18,4l17,5l15,5l14,6l24,13      l10,7l9,8l8,8l7,10l17,14l7,14l7,14l5,14l3,16v6v12l-1,12l-4,25l-8,21l-4,9l-3,10l-5,8l-4,9l-8,17l-10,13l-5,6l-4,7l-10,9l-10,9      h-2h-1v1l-2,1h-4l-4-1l-6-3l-5-4l-4-3l-3-2l-4-3l-3-2l-1-1l-10-8l13-43l8-2l8-6l4-5l4-6l4-7l5-8l3-10l4-11l8-24l1-8l2-7l4-15      l4-16l4-17l-14-10l-14-8l-15-7l-14-5l-17-5l-16-3l-17-3l-17-1l-38-1l-41,3l-22,3l-21,5L1059,1914z"
   id="path736" />

  </g>

  <g
   transform="matrix(5e-2,0,0,5e-2,0.140743,11.89636)"
   id="g737"
   style="font-size:12;fill:none;">
    <path
   style="fill-rule:evenodd;fill:#CF7E2E;"
   d="M1054,1911l5,3l123,13l38,1l17,1l17,3l16,3l17,5l14,5l15,7l14,8l14,10l-4,17      l-4,16l-4,15l-2,7l-1,8l-8,24l-4,11l-3,10l-5,8l-4,7l-4,6l-4,5l-8,6l-8,2l-13,43l10,8l115-150v-6l-3-16l-5-14l-7-14l-7-14      l-17-14l-7-10l-8-8l-9-8l-10-7l-24-13l-14-6l-15-5l-17-5l-18-4l-19-4l-20-2l-44-5l-24-1h-25l-13,7l-11,8l-15,14l-5,6l-3,7      L1054,1911z"
   id="path738" />

  </g>

  <g
   transform="matrix(5e-2,0,0,5e-2,0.140743,11.89636)"
   id="g739"
   style="font-size:12;fill:none;">
    <path
   style="fill-rule:evenodd;fill:#89541F;"
   d="M1098,1938l21-5l22-3l41-3l-123-13L1098,1938z"
   id="path740" />

  </g>

  <g
   transform="matrix(5e-2,0,0,5e-2,0.140743,11.89636)"
   id="g741"
   style="font-size:12;fill:none;">
    <path
   style="fill-rule:evenodd;fill:#89541F;"
   d="M1317,2180l10-9l10-9l4-7l5-6l10-13l8-17l4-9l5-8l3-10l4-9l8-21l4-25l1-12v-12      l-115,150l1,1l3,2l4,3l3,2l4,3l5,4l6,3l4,1h4l2-1v-1h1H1317z"
   id="path742" />

  </g>

  <g
   transform="matrix(5e-2,0,0,5e-2,0.140743,11.89636)"
   id="g743"
   style="font-size:12;fill:none;">
    <path
   style="stroke:#000000;stroke-linecap:square;stroke-miterlimit:10;"
   d="M717,1102v-1"
   id="path744" />

  </g>

  <g
   transform="matrix(5e-2,0,0,5e-2,0.140743,11.89636)"
   id="g745"
   style="font-size:12;fill:none;">
    <path
   style="stroke:#000000;stroke-linecap:square;stroke-miterlimit:10;"
   d="M1461,808h-1"
   id="path746" />

  </g>

</g>
</svg>
