<?xml version="1.0" encoding="UTF-8" standalone="no"?>
<!-- Created with Inkscape (http://www.inkscape.org/) -->

<svg
   xmlns:dc="http://purl.org/dc/elements/1.1/"
   xmlns:cc="http://creativecommons.org/ns#"
   xmlns:rdf="http://www.w3.org/1999/02/22-rdf-syntax-ns#"
   xmlns:svg="http://www.w3.org/2000/svg"
   xmlns="http://www.w3.org/2000/svg"
   xmlns:sodipodi="http://sodipodi.sourceforge.net/DTD/sodipodi-0.dtd"
   xmlns:inkscape="http://www.inkscape.org/namespaces/inkscape"
   width="32"
   height="32"
   id="svg2"
   version="1.1"
   inkscape:version="0.47 r22583"
   sodipodi:docname="Neues Dokument 1">
  <defs
     id="defs4">
    <inkscape:perspective
       sodipodi:type="inkscape:persp3d"
       inkscape:vp_x="0 : 526.18109 : 1"
       inkscape:vp_y="0 : 1000 : 0"
       inkscape:vp_z="744.09448 : 526.18109 : 1"
       inkscape:persp3d-origin="372.04724 : 350.78739 : 1"
       id="perspective10" />
    <inkscape:perspective
       id="perspective2884"
       inkscape:persp3d-origin="0.5 : 0.33333333 : 1"
       inkscape:vp_z="1 : 0.5 : 1"
       inkscape:vp_y="0 : 1000 : 0"
       inkscape:vp_x="0 : 0.5 : 1"
       sodipodi:type="inkscape:persp3d" />
    <inkscape:perspective
       id="perspective3006"
       inkscape:persp3d-origin="10 : 6.6666667 : 1"
       inkscape:vp_z="20 : 10 : 1"
       inkscape:vp_y="0 : 1000 : 0"
       inkscape:vp_x="0 : 10 : 1"
       sodipodi:type="inkscape:persp3d" />
    <inkscape:perspective
       id="perspective3082"
       inkscape:persp3d-origin="10 : 6.6666667 : 1"
       inkscape:vp_z="20 : 10 : 1"
       inkscape:vp_y="0 : 1000 : 0"
       inkscape:vp_x="0 : 10 : 1"
       sodipodi:type="inkscape:persp3d" />
    <inkscape:perspective
       id="perspective3160"
       inkscape:persp3d-origin="10 : 6.6666667 : 1"
       inkscape:vp_z="20 : 10 : 1"
       inkscape:vp_y="0 : 1000 : 0"
       inkscape:vp_x="0 : 10 : 1"
       sodipodi:type="inkscape:persp3d" />
  </defs>
  <sodipodi:namedview
     id="base"
     pagecolor="#ffffff"
     bordercolor="#666666"
     borderopacity="1.0"
     inkscape:pageopacity="0.0"
     inkscape:pageshadow="2"
     inkscape:zoom="11.2"
     inkscape:cx="18.985743"
     inkscape:cy="13.830215"
     inkscape:document-units="px"
     inkscape:current-layer="layer1"
     showgrid="true"
     inkscape:window-width="1280"
     inkscape:window-height="727"
     inkscape:window-x="0"
     inkscape:window-y="24"
     inkscape:window-maximized="1">
    <inkscape:grid
       type="xygrid"
       id="grid3093"
       empspacing="5"
       visible="true"
       enabled="true"
       snapvisiblegridlinesonly="true" />
  </sodipodi:namedview>
  <metadata
     id="metadata7">
    <rdf:RDF>
      <cc:Work
         rdf:about="">
        <dc:format>image/svg+xml</dc:format>
        <dc:type
           rdf:resource="http://purl.org/dc/dcmitype/StillImage" />
        <dc:title></dc:title>
      </cc:Work>
    </rdf:RDF>
  </metadata>
  <g
     inkscape:label="Ebene 1"
     inkscape:groupmode="layer"
     id="layer1"
     transform="translate(-334,-527.79077)">
    <g
       transform="matrix(0.06874999,0,0,0.06875,336.99996,527.79076)"
       id="g677">
      <path
         transform="matrix(1.231262,0,0,1.231257,-2153.681,-376.3533)"
         style="font-size:12px;fill:#7bc633"
         id="path633"
         d="m 1960.782,353.896 c 1.399,1.399 2.749,2.849 4.099,4.298 19.842,21.691 29.737,47.481 29.737,77.419 0,31.887 -11.295,59.126 -33.836,81.667 -22.541,22.541 -49.779,33.837 -81.667,33.837 -31.888,0 -59.126,-11.296 -81.718,-33.837 -11.146,-11.146 -19.492,-23.44 -25.14,-36.835 -5.747,-13.745 -8.646,-28.689 -8.646,-44.832 0,-31.888 11.245,-59.127 33.786,-81.718 22.592,-22.541 49.83,-33.787 81.718,-33.787 31.888,0 59.126,11.247 81.667,33.788 z" />
      <path
         transform="matrix(1.231262,0,0,1.231257,-2153.681,-376.3533)"
         style="font-size:12px;fill:#41a30e;fill-opacity:1"
         id="path634"
         d="m 1973.666,473.166 h -190 v -74 h 190 v 74 z" />
      <path
         transform="matrix(1.231262,0,0,1.231257,-2153.681,-376.3533)"
         style="font-size:12px;fill:#41a30e;fill-opacity:1"
         id="path635"
         d="m 1841.666,531.166 v -190 h 74 v 190 h -74 z" />
      <path
         transform="matrix(1.231262,0,0,1.231257,-2153.681,-376.3533)"
         style="font-size:12px;opacity:0.38999999;fill:#ffffff"
         id="path636"
         d="m 1869.216,383.565 c 0,-11.046 -3.898,-20.442 -11.695,-28.239 -7.797,-7.747 -17.193,-11.646 -28.189,-11.646 -10.994,0 -20.391,3.898 -28.188,11.646 -7.748,7.797 -11.646,17.193 -11.646,28.239 0,10.996 3.898,20.392 11.646,28.139 7.797,7.796 17.193,11.695 28.188,11.695 10.996,0 20.393,-3.898 28.189,-11.695 7.796,-7.747 11.695,-17.143 11.695,-28.139 z" />
      <path
         transform="matrix(1.231262,0,0,1.231257,-2153.681,-376.3533)"
         style="font-size:12px;fill:#ffffff"
         id="path637"
         d="m 1839.025,378.54 c -0.049,-4.348 -1.549,-8.047 -4.598,-11.096 -3.049,-3.049 -6.748,-4.598 -11.096,-4.598 -4.348,0 -8.047,1.549 -11.096,4.598 -3.049,3.049 -4.598,6.748 -4.549,11.096 -0.049,4.348 1.5,8.047 4.549,11.096 3.049,3.048 6.748,4.548 11.096,4.598 4.348,-0.05 8.047,-1.55 11.096,-4.598 3.05,-3.049 4.55,-6.748 4.598,-11.096 z" />
      <path
         transform="matrix(1.231262,0,0,1.231257,-2153.681,-376.3533)"
         style="font-size:12px;opacity:0.33999999"
         id="path638"
         d="m 1964.881,358.195 c 5.747,13.745 8.646,28.688 8.646,44.832 0,31.887 -11.296,59.127 -33.837,81.668 -22.541,22.541 -49.779,33.836 -81.667,33.836 -31.888,0 -59.126,-11.295 -81.718,-33.836 -1.398,-1.45 -2.748,-2.85 -4.048,-4.249 5.647,13.395 13.994,25.69 25.14,36.835 22.592,22.541 49.83,33.837 81.717,33.837 31.888,0 59.127,-11.296 81.668,-33.837 22.541,-22.541 33.836,-49.779 33.836,-81.667 0,-29.938 -9.895,-55.727 -29.737,-77.419 z" />
      <path
         transform="matrix(1.231262,0,0,1.231257,-2153.681,-376.3533)"
         style="font-size:12px"
         id="path639"
         d="m 1937.291,319.011 c -17.543,-8.896 -36.936,-13.345 -58.177,-13.345 -35.886,0 -66.523,12.695 -91.913,38.035 -25.34,25.39 -38.035,56.027 -38.035,91.913 0,2.6 0.05,5.148 0.199,7.697 1.7,32.587 14.295,60.626 37.836,84.166 25.39,25.391 56.027,38.086 91.913,38.086 35.886,0 66.522,-12.695 91.862,-38.086 25.391,-25.34 38.086,-55.977 38.086,-91.863 0,-35.885 -12.695,-66.523 -38.086,-91.913 -10.345,-10.347 -21.59,-18.593 -33.685,-24.69 z m 23.49,34.885 c 1.399,1.399 2.749,2.849 4.099,4.298 19.842,21.691 29.737,47.481 29.737,77.418 0,31.888 -11.295,59.127 -33.836,81.668 -22.541,22.541 -49.779,33.836 -81.667,33.836 -31.888,0 -59.126,-11.295 -81.718,-33.836 -11.146,-11.146 -19.492,-23.441 -25.14,-36.836 -5.747,-13.744 -8.646,-28.688 -8.646,-44.832 0,-31.887 11.245,-59.126 33.786,-81.717 22.592,-22.541 49.83,-33.787 81.718,-33.787 31.888,0 59.126,11.247 81.667,33.788 z" />
    </g>
    <g
       transform="matrix(0.06874999,0,0,0.06874999,343.99996,533.79077)"
       id="g581">
      <path
         transform="matrix(1.231262,0,0,1.231262,-1100.542,-366.5036)"
         style="font-size:12px;fill:#5c69b3"
         id="path612"
         d="m 1105.449,345.896 c 1.399,1.399 2.749,2.849 4.099,4.298 19.842,21.691 29.737,47.481 29.737,77.419 0,31.887 -11.295,59.127 -33.836,81.668 -22.541,22.541 -49.779,33.836 -81.667,33.836 -31.888,0 -59.126,-11.295 -81.718,-33.836 -11.146,-11.146 -19.492,-23.441 -25.14,-36.836 -5.747,-13.744 -8.646,-28.689 -8.646,-44.832 0,-31.887 11.245,-59.126 33.786,-81.717 22.592,-22.541 49.83,-33.787 81.718,-33.787 31.888,0 59.126,11.246 81.667,33.787 z" />
      <path
         style="font-size:12px;fill:#364998;fill-opacity:1"
         id="path822"
         d="M 205.8393,278.7152 44.12975,109.6646 109.9704,46.68317 271.6798,215.7338 205.8393,278.7152 z" />
      <path
         style="font-size:12px;fill:#364998;fill-opacity:1"
         id="path823"
         d="M 41.88873,210.6332 210.9392,48.92419 273.9207,114.7652 104.8704,276.4741 41.88873,210.6332 z" />
      <path
         transform="matrix(1.231262,0,0,1.231262,-1100.542,-366.5036)"
         style="font-size:12px;opacity:0.5;fill:#f8f5f9"
         id="path613"
         d="m 1013.883,375.564 c 0,-11.046 -3.898,-20.442 -11.695,-28.239 -7.797,-7.747 -17.193,-11.646 -28.189,-11.646 -10.994,0 -20.391,3.898 -28.188,11.646 -7.748,7.797 -11.646,17.193 -11.646,28.239 0,10.996 3.898,20.392 11.646,28.139 7.797,7.797 17.193,11.695 28.188,11.695 10.996,0 20.393,-3.898 28.189,-11.695 7.796,-7.747 11.695,-17.143 11.695,-28.139 z" />
      <path
         transform="matrix(1.231262,0,0,1.231262,-1100.542,-366.5036)"
         style="font-size:12px;fill:#ffffff"
         id="path614"
         d="m 983.692,370.54 c -0.049,-4.348 -1.549,-8.047 -4.598,-11.096 -3.049,-3.049 -6.748,-4.598 -11.096,-4.598 -4.348,0 -8.047,1.549 -11.096,4.598 -3.049,3.049 -4.598,6.748 -4.549,11.096 -0.049,4.348 1.5,8.047 4.549,11.096 3.049,3.048 6.748,4.548 11.096,4.598 4.348,-0.05 8.047,-1.55 11.096,-4.598 3.05,-3.05 4.55,-6.748 4.598,-11.096 z" />
      <path
         transform="matrix(1.231262,0,0,1.231262,-1100.542,-366.5036)"
         style="font-size:12px;opacity:0.33999999"
         id="path615"
         d="m 1109.548,350.195 c 5.747,13.745 8.646,28.688 8.646,44.832 0,31.887 -11.296,59.126 -33.837,81.667 -22.541,22.541 -49.779,33.837 -81.667,33.837 -31.888,0 -59.126,-11.296 -81.718,-33.837 -1.398,-1.45 -2.748,-2.849 -4.048,-4.249 5.647,13.395 13.994,25.69 25.14,36.836 22.592,22.541 49.83,33.836 81.717,33.836 31.888,0 59.127,-11.295 81.668,-33.836 22.541,-22.541 33.836,-49.78 33.836,-81.668 0,-29.937 -9.895,-55.727 -29.737,-77.418 z" />
      <path
         transform="matrix(1.231262,0,0,1.231262,-1100.542,-366.5036)"
         style="font-size:12px"
         id="path616"
         d="m 1081.958,311.01 c -17.543,-8.896 -36.936,-13.345 -58.177,-13.345 -35.886,0 -66.523,12.695 -91.913,38.035 -25.34,25.39 -38.035,56.027 -38.035,91.913 0,2.6 0.05,5.148 0.199,7.697 1.7,32.586 14.295,60.625 37.836,84.166 25.39,25.39 56.027,38.085 91.913,38.085 35.886,0 66.522,-12.695 91.862,-38.085 25.391,-25.34 38.086,-55.978 38.086,-91.863 0,-35.885 -12.695,-66.523 -38.086,-91.913 -10.345,-10.346 -21.59,-18.593 -33.685,-24.69 z m 23.49,34.886 c 1.399,1.399 2.749,2.849 4.099,4.298 19.842,21.691 29.737,47.481 29.737,77.419 0,31.887 -11.295,59.127 -33.836,81.668 -22.541,22.541 -49.779,33.836 -81.667,33.836 -31.888,0 -59.126,-11.295 -81.718,-33.836 -11.146,-11.146 -19.492,-23.441 -25.14,-36.836 -5.747,-13.744 -8.646,-28.688 -8.646,-44.832 0,-31.887 11.245,-59.126 33.786,-81.717 22.592,-22.541 49.83,-33.787 81.718,-33.787 31.888,0 59.126,11.246 81.667,33.787 z" />
    </g>
    <g
       transform="matrix(0.06874999,0,0,0.06874999,333.99997,537.79078)"
       id="g659">
      <path
         transform="matrix(1.231262,0,0,1.231262,-1810.569,-375.5337)"
         style="font-size:12px;fill:#ff0000"
         id="path628"
         d="m 1682.115,353.229 c 1.399,1.399 2.749,2.849 4.099,4.298 19.842,21.691 29.737,47.481 29.737,77.419 0,31.887 -11.295,59.126 -33.836,81.667 -22.541,22.541 -49.779,33.837 -81.667,33.837 -31.888,0 -59.126,-11.296 -81.718,-33.837 -11.146,-11.146 -19.492,-23.44 -25.14,-36.835 -5.747,-13.745 -8.646,-28.689 -8.646,-44.832 0,-31.888 11.245,-59.127 33.786,-81.718 22.592,-22.541 49.83,-33.787 81.718,-33.787 31.888,0 59.126,11.247 81.667,33.788 z" />
      <path
         style="font-size:12px;fill:#d01010;fill-opacity:1"
         id="path888"
         d="m 254.7806,160.0667 -189.55892,0 0,-75.44972 189.55892,0 0,75.44972 z" />
      <path
         style="font-size:12px;fill:#d01010;fill-opacity:1"
         id="path889"
         d="m 254.7806,248.8272 -189.55892,0 0,-75.4498 189.55892,0 0,75.4498 z" />
      <path
         transform="matrix(1.231262,0,0,1.231262,-1810.569,-375.5337)"
         style="font-size:12px;opacity:0.38999999;fill:#ffffff"
         id="path629"
         d="m 1590.549,382.898 c 0,-11.046 -3.898,-20.442 -11.695,-28.239 -7.797,-7.747 -17.193,-11.646 -28.189,-11.646 -10.994,0 -20.391,3.898 -28.188,11.646 -7.748,7.797 -11.646,17.193 -11.646,28.239 0,10.996 3.898,20.392 11.646,28.139 7.797,7.797 17.193,11.696 28.188,11.696 10.996,0 20.393,-3.898 28.189,-11.696 7.796,-7.747 11.695,-17.143 11.695,-28.139 z" />
      <path
         transform="matrix(1.231262,0,0,1.231262,-1810.569,-375.5337)"
         style="font-size:12px;fill:#ffffff"
         id="path630"
         d="m 1560.358,377.873 c -0.049,-4.348 -1.549,-8.047 -4.598,-11.096 -3.049,-3.049 -6.748,-4.598 -11.096,-4.598 -4.348,0 -8.047,1.549 -11.096,4.598 -3.049,3.049 -4.598,6.748 -4.549,11.096 -0.049,4.348 1.5,8.047 4.549,11.096 3.049,3.048 6.748,4.548 11.096,4.598 4.348,-0.05 8.047,-1.55 11.096,-4.598 3.05,-3.049 4.55,-6.748 4.598,-11.096 z" />
      <path
         transform="matrix(1.231262,0,0,1.231262,-1810.569,-375.5337)"
         style="font-size:12px;opacity:0.33999999"
         id="path631"
         d="m 1686.214,357.528 c 5.747,13.745 8.646,28.688 8.646,44.832 0,31.888 -11.296,59.126 -33.837,81.667 -22.541,22.541 -49.779,33.837 -81.667,33.837 -31.888,0 -59.126,-11.296 -81.718,-33.837 -1.398,-1.449 -2.748,-2.849 -4.048,-4.248 5.647,13.395 13.994,25.689 25.14,36.836 22.592,22.541 49.83,33.836 81.717,33.836 31.888,0 59.127,-11.295 81.668,-33.836 22.541,-22.541 33.836,-49.781 33.836,-81.668 0,-29.938 -9.895,-55.727 -29.737,-77.419 z" />
      <path
         transform="matrix(1.231262,0,0,1.231262,-1810.569,-375.5337)"
         style="font-size:12px"
         id="path632"
         d="m 1658.624,318.344 c -17.543,-8.896 -36.936,-13.345 -58.177,-13.345 -35.886,0 -66.523,12.695 -91.913,38.035 -25.34,25.39 -38.035,56.027 -38.035,91.914 0,2.599 0.05,5.147 0.199,7.696 1.7,32.587 14.295,60.626 37.836,84.167 25.39,25.389 56.027,38.084 91.913,38.084 35.886,0 66.522,-12.695 91.862,-38.084 25.391,-25.34 38.086,-55.979 38.086,-91.863 0,-35.886 -12.695,-66.524 -38.086,-91.914 -10.345,-10.346 -21.59,-18.593 -33.685,-24.69 z m 23.49,34.885 c 1.399,1.399 2.749,2.849 4.099,4.298 19.842,21.691 29.737,47.481 29.737,77.419 0,31.887 -11.295,59.126 -33.836,81.667 -22.541,22.541 -49.779,33.837 -81.667,33.837 -31.888,0 -59.126,-11.296 -81.718,-33.837 -11.146,-11.146 -19.492,-23.44 -25.14,-36.835 -5.747,-13.745 -8.646,-28.689 -8.646,-44.832 0,-31.888 11.245,-59.127 33.786,-81.718 22.592,-22.541 49.83,-33.787 81.718,-33.787 31.888,0 59.126,11.247 81.667,33.788 z" />
    </g>
  </g>
</svg>
