/* XPM */
static char *monkey-bubble[] = {
/* columns rows colors chars-per-pixel */
"32 32 65 1",
"  c #070303",
". c #050813",
"X c #091705",
"o c #190404",
"O c #171A1A",
"+ c #010A2B",
"@ c #10360A",
"# c #3B0504",
"$ c #27331B",
"% c #262727",
"& c gray21",
"* c #03164B",
"= c #051C63",
"- c #13244D",
"; c #236211",
": c #550706",
"> c #700B08",
", c #426734",
"< c gray30",
"1 c #4A7A41",
"2 c #6B6A6A",
"3 c #092782",
"4 c #1134A4",
"5 c #304FB2",
"6 c #1540CB",
"7 c #1744D5",
"8 c #2A54DB",
"9 c #3B61DB",
"0 c #4D68B0",
"q c #4D6ED5",
"w c #36931A",
"e c #4FA235",
"r c #63AA4D",
"t c #748FE4",
"y c #890E0E",
"u c #AF1212",
"i c #BD100F",
"p c #AC2E2B",
"a c #C11415",
"s c #CC1616",
"d c #CF1F1F",
"f c #D61717",
"g c #D42E2E",
"h c #D94646",
"j c #DE5858",
"k c #DE6969",
"l c #E17474",
"z c #80BB6E",
"x c #888888",
"c c #B1B1B2",
"v c #A3B6F2",
"b c #A6D598",
"n c #E88E8E",
"m c #F2BFBF",
"M c #CFD0CE",
"N c #C3CFF6",
"B c #DAE1F7",
"V c #E3F7DD",
"C c gray90",
"Z c #E4EAFA",
"A c #FAE8E8",
"S c #F5F5F7",
"D c #FFFEFE",
"F c gray100",
"G c None",
/* pixels */
"GGGGGGGGGGGMx<%%<2cSGGGGGGGGGGGG",
"GGGGGGGGGM<X@;;;;@X&cGGGGGGGGGGG",
"GGGGGGGGxX@wwwwerrr,X2SGGGGGGGGG",
"GGGGGGGxX;wwwwrzbVVbr@<SGGGGGGGG",
"GGGGGGcX;wwwwezbMc2<$X 2MGGGGGGG",
"GGGGGS%;wwwwwzz,O+*=3==+.2MGGGGG",
"GGGGGxXwwww;;,O+467778995-.xGGGG",
"GGGGG<;w@X ooo +3477qttvvt5+2FGG",
"GGGGSO@o:yuaaiuy# =qttZDFSv5+xGG",
"GGGGc #ufffsdhjjhp#O0NDDFFBt4.cG",
"GGGc.>ffsssgkllmmnj>.cFFFDZt8=&D",
"GGMOyfssssdklnADDDmj:%CFFDNt86.c",
"GS&:fssssshlkmFDDDSng#<SSNtt77*x",
"GxossssssskllAFFDDDnhio0tttq67=<",
"S%yfsssssdklkmFFDDDnjf>-ttq7774&",
"coasssssssklknAFDDmlhsio0966774%",
"x:fssssssshllknmmnklgss#3766674&",
"<>fsssssssdkllkkkkljssf:=766673<",
"&yfssssssssgkllllljdssf>*76667*x",
"%yfsssssssssdhjjjhssssf>*76676.M",
"&yfsssssssssssssssssssf>*7667=<G",
"2>fsssssssssssssssssssf:=7674.MG",
"x#fssssssssssssssssssss#3774.xGG",
"Moafsssssssssssssssssfu.673.xGGG",
"D<>fsssssssssssssssssf:*4*OcGGGG",
"Gcoufsssssssssssssssfu .O2CGGGGG",
"GG2#sssssssssssssssfa#2cCGGGGGGG",
"GGC&:ffsssssssssssfs#&SGGGGGGGGG",
"GGGM%:afsssssssssfu#&CGGGGGGGGGG",
"GGGGC<oyafffffffa>o2SGGGGGGGGGGG",
"GGGGGGc&o:yyuyy:o&cGGGGGGGGGGGGG",
"GGGGGGGSc2<&%&<xMDGGGGGGGGGGGGGG"
};
