<?xml version="1.0" encoding="UTF-8" standalone="no"?>
<!DOCTYPE svg PUBLIC "-//W3C//DTD SVG 20010904//EN"
"http://www.w3.org/TR/2001/REC-SVG-20010904/DTD/svg10.dtd">
<!-- Created with Sodipodi ("http://www.sodipodi.com/") -->
<svg
   width="280pt"
   height="60pt"
   xml:space="preserve"
   id="svg16034"
   sodipodi:version="0.33"
   sodipodi:docname="pixmaps/pane.svg"
   sodipodi:docbase="pixmaps/"
   xmlns="http://www.w3.org/2000/svg"
   xmlns:sodipodi="http://sodipodi.sourceforge.net/DTD/sodipodi-0.dtd"
   xmlns:xml="http://www.w3.org/XML/1998/namespace"
   xmlns:xlink="http://www.w3.org/1999/xlink">
  <defs
   id="defs16596" />


  <sodipodi:namedview
   id="base"
   gridcolor="#3f3fff"
   gridopacity="0.184314"
   showgrid="false"
   showborder="true" />


  
<g
   id="g2055"
   transform="matrix(1.031862,0,0,0.869158,-15.55634,-17.48487)">
  
  
  
  <path
   style="fill:#336699;fill-rule:evenodd;"
   d="M 335.06131,30.984480 C 333.35642,34.791790 328.45589,34.554690 326.63564,30.828370 C 321.95687,28.650510 316.14133,29.725730 311.04381,28.907310 C 286.06776,26.867480 261.46453,32.495580 236.63050,33.932350 C 235.42924,32.374290 233.16924,29.553560 229.25816,30.932450 C 177.07456,31.480520 124.86788,29.384270 72.707466,27.613780 C 70.834959,30.219700 68.770889,27.501510 65.513972,27.130820 C 50.938172,24.441879 35.990370,21.319709 21.142730,23.126734 C 16.632091,25.237300 20.735339,31.903630 19.933334,35.931350 C 20.491331,43.726330 20.257835,51.545690 19.931858,59.345260 C 22.659502,60.646900 21.599469,60.606710 20.133671,62.051230 C 20.826914,67.522280 18.742560,74.446930 24.127050,77.826600 C 23.124446,80.073490 25.643605,79.809420 28.862040,79.588070 C 54.658181,77.638550 80.564748,78.596430 106.40830,78.130990 C 106.93818,73.619890 109.79063,80.751000 112.46772,78.844080 C 159.88010,77.751620 207.31992,78.485440 254.74320,78.197960 C 264.14054,78.230040 273.94846,79.315640 283.09472,78.911560 C 283.62555,73.378400 285.43591,82.211130 289.41408,79.223800 C 310.29738,79.223800 331.18067,79.223800 352.06397,79.223800 C 350.38220,68.174370 348.70043,57.124950 347.01867,46.075530 C 352.87428,46.923350 349.94211,38.757970 350.60082,35.335940 C 352.59037,28.067260 348.24147,27.860370 342.52049,29.182140 C 340.20904,29.875420 336.43020,28.485140 335.06131,30.984480 z "
   id="path930"
   sodipodi:nodetypes="ccccccccccccccccccccccc" />


  
  <path
   style="fill:#9e6934;fill-opacity:1.0000000;fill-rule:evenodd;stroke:none;stroke-width:1.0000000pt;stroke-linecap:butt;stroke-linejoin:miter;stroke-opacity:1.0000000;"
   d="M 23.180016,28.775290 L 23.555016,59.056540 L 29.148766,62.431540 L 23.180016,64.306540 L 24.680016,76.275290 L 106.14876,75.525290 L 108.77376,72.150290 L 111.02376,76.275290 L 279.61752,75.900290 L 279.99252,72.525290 L 285.96127,77.400290 L 348.39877,77.775290 L 344.27377,49.337790 L 338.68002,47.869040 L 347.27377,45.619040 L 346.89877,34.025290 L 337.18002,35.150290 L 329.71127,39.619040 L 322.96127,34.775290 L 268.02377,35.900290 L 233.24251,39.619040 L 231.02376,35.900290 L 147.64876,36.275290 L 86.711263,34.025290 L 75.867513,32.150290 L 73.273763,35.900290 L 69.523763,31.775290 L 23.180016,28.775290 z M 263.14877,62.806540 C 266.65671,62.806540 269.52377,64.071420 269.52377,65.619040 C 269.52376,67.166660 266.65671,68.400290 263.14877,68.400290 C 259.64083,68.400290 256.80502,67.166660 256.80502,65.619040 C 256.80503,64.071420 259.64083,62.806540 263.14877,62.806540 z "
   id="path7367" />


  <path
   style="fill:#cc9966;fill-opacity:1.0000000;fill-rule:evenodd;stroke:none;stroke-width:1.0000000pt;stroke-linecap:butt;stroke-linejoin:miter;stroke-opacity:1.0000000;"
   d="M 23.187500,26.718750 L 23.562500,57.000000 L 29.156250,60.375000 L 23.187500,62.250000 L 24.687500,74.218750 L 106.15625,73.468750 L 108.78125,70.093750 L 111.03125,74.218750 L 279.62500,73.843750 L 280.00000,70.468750 L 285.96875,75.343750 L 348.40625,75.718750 L 344.28125,47.281250 L 338.68750,45.812500 L 347.28125,43.562500 L 346.90625,31.968750 L 337.18750,33.093750 L 329.71875,37.562500 L 322.96875,32.718750 L 268.03125,33.843750 L 233.25000,37.562500 L 231.03125,33.843750 L 147.65625,34.218750 L 86.718750,31.968750 L 75.875000,30.093750 L 73.281250,33.843750 L 69.531250,29.718750 L 23.187500,26.718750 z M 263.15625,60.750000 C 266.66419,60.750000 269.53125,62.014880 269.53125,63.562500 C 269.53124,65.110120 266.66419,66.343750 263.15625,66.343750 C 259.64831,66.343750 256.81250,65.110120 256.81250,63.562500 C 256.81251,62.014880 259.64831,60.750000 263.15625,60.750000 z "
   id="path6106" />


  <path
   style="fill:#d8ae81;fill-opacity:1.0000000;fill-rule:nonzero;stroke:none;stroke-width:1.0000000pt;stroke-linecap:butt;stroke-linejoin:miter;stroke-opacity:1.0000000;"
   d="M 23.183663,32.014610 C 62.852003,30.401930 100.24270,47.268840 140.03565,43.305090 C 166.92035,43.327130 191.08740,41.117020 217.90860,40.007920 C 244.09566,40.025740 272.27533,47.543370 298.46252,43.163960 C 311.74949,42.195210 334.39419,35.854100 347.26782,33.219650 C 347.09043,35.798390 346.87883,35.029470 346.81674,37.901430 C 326.57505,38.353460 306.46682,48.683370 285.98612,47.779130 C 262.05091,49.548370 240.55043,40.657250 216.59117,42.544520 C 191.71364,43.669760 165.00756,47.281230 140.10536,47.282980 C 102.04876,50.246490 60.869383,38.478920 23.088047,37.702490 C 23.449383,34.113460 23.241043,35.724810 23.183663,32.014610 z "
   id="path7368"
   sodipodi:nodetypes="ccccccccccc" />


  <path
   style="fill:#d8ae81;fill-opacity:1.0000000;fill-rule:nonzero;stroke:none;stroke-width:1.0000000pt;stroke-linecap:butt;stroke-linejoin:miter;stroke-opacity:1.0000000;"
   d="M 23.360112,43.044440 C 38.075791,42.405710 52.234813,44.214430 66.829484,46.395210 C 92.205915,47.968810 117.43202,51.983800 142.92881,50.741350 C 162.89236,51.645130 182.47918,46.991720 202.35780,46.367040 C 231.29434,43.212690 258.76130,52.325460 287.64492,50.877510 C 300.24697,48.862560 333.24896,43.705580 347.13329,40.214540 C 347.82488,43.843240 348.10811,43.457350 338.36139,45.188970 C 324.93510,47.614310 309.31805,49.489930 296.26400,53.835900 C 279.86104,59.966920 263.80497,52.731740 247.01271,51.532430 C 229.06866,47.549600 210.54809,49.049930 192.34904,51.076490 C 174.26787,52.298040 155.95322,55.895510 137.72484,54.663860 C 110.90559,55.675450 83.979416,50.705440 57.277228,49.133220 C 45.867630,46.411900 33.063331,47.850210 22.809841,46.102340 C 23.549115,45.845400 23.360112,43.246760 23.360112,43.044440 z "
   id="path7371"
   sodipodi:nodetypes="cccccccccccccc" />


  <path
   style="fill:#d8ae81;fill-opacity:1.0000000;fill-rule:nonzero;stroke:none;stroke-width:1.0000000pt;stroke-linecap:butt;stroke-linejoin:miter;stroke-opacity:1.0000000;"
   d="M 345.59773,57.529180 C 333.35090,61.246450 320.05017,63.594390 306.65443,63.757300 C 291.36106,65.536050 278.76921,61.587850 264.04702,58.973770 C 249.64997,56.746840 233.94020,62.007310 219.56197,62.137680 C 188.33088,64.888650 157.08050,58.788370 125.79844,60.983910 C 96.691552,62.743790 52.292565,55.608590 23.266005,55.454010 C 22.987392,52.122240 22.701452,53.328160 23.251487,49.998940 C 43.549271,51.838240 71.141582,52.566470 91.264180,56.298970 C 119.48117,59.114800 147.47721,55.871630 175.70985,58.660520 C 200.77088,60.641460 224.65669,61.284510 249.25398,55.684700 C 262.67274,54.346710 276.49770,57.587730 289.41310,59.742580 C 305.82840,61.048610 330.19889,60.233590 344.68808,51.674850 C 345.07515,54.911490 345.84592,55.099550 345.59773,57.529180 z "
   id="path7373"
   sodipodi:nodetypes="ccccccccccccc" />


  <path
   style="fill:#d8ae81;fill-opacity:1.0000000;fill-rule:nonzero;stroke:none;stroke-width:1.0000000pt;stroke-linecap:butt;stroke-linejoin:miter;stroke-opacity:1.0000000;"
   d="M 23.746488,65.284740 C 61.160466,61.586180 98.847958,66.993800 136.33186,66.180130 C 173.40623,66.847070 210.52837,64.109950 246.82569,64.785410 C 255.53210,66.447860 268.67473,67.859270 294.04855,66.489360 C 310.21288,67.666590 330.87030,63.845940 346.88396,65.298860 C 346.81731,67.170250 347.53138,68.599310 347.49499,71.277850 C 332.83169,72.919410 280.69316,71.245160 266.03137,71.525390 C 251.18384,68.994630 239.22609,68.196370 224.15748,69.397760 C 171.76190,70.352190 121.22403,70.176780 68.845528,69.287910 C 55.573509,69.473260 38.183174,70.925700 25.135936,72.804370 C 23.970722,69.716060 24.429943,69.392320 23.746488,65.284740 z "
   id="path7374"
   sodipodi:nodetypes="ccccccccccc" />


  <path
   style="fill:#d8ae81;fill-opacity:1.0000000;fill-rule:nonzero;stroke:none;stroke-width:1.0000000pt;stroke-linecap:butt;stroke-linejoin:miter;stroke-opacity:1.0000000;"
   d="M 320.35849,33.041760 C 292.25863,38.482130 271.36708,39.346280 255.31348,40.998590 C 232.82383,40.547980 187.36661,36.462540 164.81274,39.412770 C 139.40478,41.592010 98.027806,38.488010 73.950621,33.658550 C 74.797011,31.849570 75.497946,31.335490 75.494818,30.590230 C 87.494767,34.300350 98.811529,35.912000 111.42830,36.446540 C 136.40538,37.874840 159.53565,36.863130 186.01127,35.112070 C 206.88889,36.486600 235.21182,40.071220 256.18579,37.173740 C 276.42989,35.946580 288.38002,35.812470 309.51995,33.349310 C 311.72031,33.189120 315.49793,32.825400 320.35849,33.041760 z "
   id="path7375"
   sodipodi:nodetypes="cccccccccc" />


  <path
   style="fill:#006699;fill-rule:evenodd;"
   d="M 160.69250,46.827200 C 160.51987,45.466189 160.98131,44.063698 160.54436,42.730137 C 159.53744,42.695586 158.72577,43.464264 157.78171,43.720840 C 155.38229,44.759495 152.92044,45.670589 150.38002,46.296731 C 149.20365,46.844316 150.11578,48.205322 150.14756,49.131074 C 150.56679,52.613569 150.89942,56.124723 150.80026,59.639819 C 150.95655,60.713385 150.57843,61.790124 150.77287,62.855227 C 151.84481,63.174980 152.77024,62.152026 153.83079,62.058384 C 155.80248,61.413907 157.79717,60.843155 159.79250,60.277200 C 159.71027,61.429746 161.42147,60.807853 161.16516,59.928349 C 162.61734,60.162025 162.51911,58.254970 162.04632,57.393736 C 162.00694,56.458397 161.99803,54.437025 160.64820,55.577596 C 159.63412,56.179409 158.60195,56.752218 157.47794,57.123588 C 156.59054,57.463769 155.68134,58.012326 154.69790,57.842560 C 154.55386,56.767811 153.77467,54.958235 155.05588,54.381702 C 156.56751,53.740125 158.16207,53.284452 159.79250,53.077200 C 160.42015,52.586694 161.35278,52.317678 161.27495,51.322285 C 161.27851,50.276792 160.33472,49.058763 159.33047,50.010367 C 157.58770,50.774546 155.84525,51.547405 154.04352,52.164548 C 153.78907,50.922514 153.77371,49.649848 153.73296,48.387536 C 155.93393,47.457488 158.33564,47.199943 160.69250,46.977200 C 160.69250,46.927200 160.69250,46.827200 160.69250,46.827200 z "
   id="path1140" />


  <path
   style="fill:#006699;fill-rule:evenodd;"
   d="M 113.44250,47.877199 C 113.41520,47.659332 113.28256,47.420420 113.07483,47.334710 C 112.84633,47.275200 112.65117,47.443776 112.49757,47.588626 C 112.33199,47.735334 112.49366,47.913655 112.57541,48.052927 C 112.66461,48.247566 112.91334,48.381035 113.11241,48.263903 C 113.26472,48.172350 113.26531,47.939053 113.44250,47.877199 z "
   id="path1225" />


  <path
   style="fill:#006699;fill-rule:evenodd;"
   d="M 108.99250,47.527201 C 108.05632,48.142641 106.77942,47.828189 105.88287,48.600367 C 104.00128,49.531766 102.78957,51.377765 101.91529,53.221819 C 101.18452,54.870845 100.80901,56.679826 100.94914,58.484546 C 100.98337,61.378105 102.13531,64.415235 104.51087,66.177137 C 107.07569,68.012268 111.08962,67.422366 112.85313,64.755006 C 114.88457,62.247140 115.24898,58.858677 115.10537,55.743786 C 114.95522,53.105319 113.97408,50.251349 111.65056,48.771372 C 110.89067,48.282704 110.50238,47.079428 109.41298,47.231666 C 109.23866,47.264394 109.08467,47.376669 108.99250,47.527201 z M 110.09250,52.577200 C 111.33777,52.377555 111.74247,54.152909 112.01041,55.095242 C 112.29373,56.917854 112.08917,58.880710 111.15085,60.493088 C 110.53997,61.859371 108.70172,62.651051 107.38725,61.788627 C 105.97394,60.828449 105.81102,58.937285 105.92418,57.379382 C 105.99568,56.152354 106.28135,54.918683 106.89640,53.845655 C 107.78576,53.103856 109.07197,53.208744 109.99242,52.648546 C 110.02578,52.624764 110.09250,52.577200 110.09250,52.577200 z "
   id="path1330" />


  <path
   style="fill:#006699;fill-rule:evenodd;"
   d="M 99.642502,60.377200 C 99.513241,60.142485 99.384375,59.746461 99.038154,59.835841 C 98.810908,59.898888 98.536824,60.125371 98.629412,60.387702 C 98.722759,60.618768 98.973702,60.923776 99.247834,60.755627 C 99.414718,60.666605 99.493006,60.488414 99.642502,60.377200 z "
   id="path1375" />


  <path
   style="fill:#006699;fill-rule:evenodd;"
   d="M 100.69250,63.827200 C 100.38745,63.992576 100.56920,64.451238 100.89212,64.434267 C 101.20450,64.483419 101.38973,64.034303 101.17212,63.829436 C 101.03901,63.723849 100.82659,63.723169 100.69250,63.827200 z "
   id="path1410" />


  <path
   style="fill:#006699;fill-rule:evenodd;"
   d="M 132.34250,46.327200 C 131.90662,45.195978 130.22387,45.769010 129.58117,44.840944 C 128.39232,44.351370 126.44772,45.314378 127.62434,46.648600 C 128.38360,50.725068 128.75171,54.859477 129.15233,58.982630 C 125.30286,55.425378 121.27305,51.820811 118.87688,47.069514 C 117.65280,47.332560 116.47153,48.843864 116.00064,49.713113 C 117.22753,52.026383 117.15052,54.724436 117.62047,57.241602 C 118.11057,60.779566 118.21070,64.369305 118.82111,67.884884 C 119.49581,69.576427 120.70424,67.492498 120.49777,66.478370 C 121.13375,65.651075 123.44999,67.182449 122.95281,65.175982 C 122.67041,63.977585 122.26470,62.805816 122.22362,61.567923 C 121.92522,59.695156 121.71792,57.809681 121.49250,55.927200 C 124.94168,58.951801 128.03203,62.430245 130.35936,66.396663 C 130.93803,66.163151 132.03894,64.472742 131.81536,66.074378 C 132.21755,67.391488 131.80925,69.006808 132.80562,70.097827 C 134.39587,71.048007 132.87520,68.607230 132.92675,67.813784 C 132.69671,66.537408 132.35871,65.156087 132.88534,63.917455 C 133.29357,61.708614 132.44125,59.518990 132.51921,57.302454 C 132.29703,53.983068 131.97384,50.657202 132.14250,47.327200 C 132.80784,47.402203 133.08256,46.458261 132.34250,46.327200 z "
   id="path1420" />


  <path
   style="fill:#006699;fill-rule:evenodd;"
   d="M 278.89249,42.527199 C 278.60583,44.339479 279.36950,46.131611 279.42274,47.954069 C 279.75773,51.450238 279.90430,54.965808 279.79251,58.477200 C 277.75165,58.811544 280.31341,61.423605 280.53748,59.208567 C 281.83809,57.168263 284.37843,59.865149 285.20966,57.306259 C 286.42440,57.067163 289.63198,55.193118 289.05945,57.858813 C 288.87399,58.619632 289.54212,60.846740 289.79443,58.854146 C 289.33694,57.243540 289.52537,55.807285 291.24092,55.349243 C 291.42524,53.974488 290.96583,52.216662 290.48893,51.092226 C 288.56499,52.064842 286.66476,53.189127 284.57885,53.857800 C 282.85192,54.679189 282.76496,49.727664 284.97038,49.962437 C 286.55843,48.869937 288.52492,49.758968 289.99703,49.020979 C 292.49603,48.120191 289.24949,46.799620 289.24700,47.788070 C 290.84084,47.438659 290.80271,44.478557 288.88929,45.723495 C 287.06598,46.285762 284.34278,48.373980 283.00262,47.735456 C 282.37157,45.907518 282.43988,43.463590 284.99934,43.631884 C 286.75355,42.811389 290.36215,44.033805 289.65050,41.127606 C 290.01139,39.516035 289.35544,37.882461 287.70958,39.362721 C 284.85745,40.644488 281.87461,41.600994 278.89249,42.527199 z "
   id="path1630" />


  <path
   style="fill:#006699;fill-rule:evenodd;"
   d="M 173.39250,39.227200 C 173.42501,42.418378 172.32230,45.466322 171.33207,48.455722 C 171.01704,49.082226 170.73657,50.840338 170.17124,49.455388 C 168.34488,46.793554 166.84326,43.929807 165.34250,41.077202 C 164.69941,42.442201 161.97260,42.926483 162.61035,44.713464 C 163.31811,45.739038 164.23252,46.603870 164.88925,47.672599 C 166.55651,49.956351 168.10953,52.337701 169.32753,54.894564 C 168.70594,57.140139 167.80606,59.301923 167.27322,61.573139 C 166.50464,61.841738 166.17553,64.120357 167.22786,62.830490 C 167.56796,62.696819 168.11555,63.555658 168.24249,62.827200 C 168.52278,63.726859 170.57142,63.214864 169.43334,62.426723 C 170.34880,62.371060 172.39399,63.482601 172.20251,61.755689 C 170.75754,61.268448 171.99221,59.465299 171.89420,58.366985 C 172.82706,53.283867 174.64964,48.427573 176.17050,43.503510 C 176.32665,42.606541 177.26020,41.157542 176.97295,40.640962 C 175.97315,40.681817 174.93782,38.729815 174.11338,39.922178 C 174.13950,39.563819 173.83144,38.531214 173.39250,39.227200 z "
   id="path1640" />


  <path
   style="fill:#006699;fill-rule:evenodd;"
   d="M 133.69250,44.977200 C 134.27088,48.657417 134.95887,52.326413 135.30708,56.037587 C 135.58263,59.275503 135.60684,62.527172 135.65409,65.774376 C 137.17156,65.798171 136.79193,67.590077 136.76799,68.607428 C 136.42697,69.804692 138.54667,70.840534 138.30196,69.092235 C 138.48368,68.274610 137.44223,66.134863 138.92698,66.739895 C 140.10771,67.063864 139.31792,65.767247 139.80853,65.257594 C 138.99904,64.213752 139.16606,63.019821 139.03932,61.781815 C 138.96149,61.012046 138.42905,59.052253 139.39139,59.147205 C 140.51129,59.980205 142.26692,60.360455 142.57572,61.926104 C 142.52724,63.678412 144.56633,61.485796 145.00423,63.074042 C 145.91705,64.190146 146.49411,62.903189 146.54720,61.989098 C 146.84915,60.900774 147.87174,59.625396 147.07988,58.547828 C 145.76729,58.003575 144.29085,57.763107 142.99268,57.099503 C 141.55018,56.471249 140.16618,55.702518 138.89250,54.777201 C 141.94000,52.612744 144.87957,50.248470 148.24249,48.577200 C 147.63800,47.793530 146.80563,46.690169 147.42713,45.893385 C 146.97365,44.863202 145.91470,43.472851 144.78239,44.629074 C 143.79641,45.702035 143.10168,47.016848 141.99365,47.985050 C 140.80063,49.194600 139.39350,50.157588 138.04250,51.177200 C 137.74467,48.930087 137.70997,46.650230 137.27276,44.421566 C 136.30177,43.285870 134.73376,44.570146 133.69250,44.977200 z "
   id="path1645" />


  <path
   style="fill:#006699;fill-rule:evenodd;"
   d="M 177.09250,38.377201 C 176.86516,38.405896 176.59098,38.636088 176.70806,38.883943 C 176.84112,39.120603 177.28720,39.172395 177.38063,38.874964 C 177.49252,38.610478 177.34565,38.441200 177.09250,38.377201 z "
   id="path1655" />


  <path
   style="fill:#006699;fill-rule:evenodd;"
   d="M 262.04251,42.227200 C 258.34619,40.651273 254.22284,41.871942 250.71543,43.340846 C 247.96416,43.257881 248.33810,47.702574 250.11757,48.209388 C 251.20343,49.427942 250.98609,52.730275 251.34911,54.782747 C 251.49501,57.675887 251.89209,60.571950 251.83686,63.463470 C 250.71140,64.846076 252.84743,66.773864 253.25348,64.508437 C 252.15853,60.909866 256.32678,61.878003 258.39894,60.958030 C 259.50098,60.706379 260.49362,59.802039 260.89926,61.081140 C 261.70453,59.390723 263.73368,58.708212 264.84288,56.929371 C 267.05286,54.769355 265.48643,50.171951 262.17637,50.521852 C 260.17921,50.319004 264.02571,48.884380 263.98680,47.741833 C 265.28108,45.748493 264.21348,43.034605 262.04251,42.227200 z M 260.59250,46.477200 C 260.28897,48.741352 257.53492,49.697176 255.60249,50.147444 C 256.48397,48.315088 253.32261,49.304276 254.69678,50.420546 C 253.53730,48.860184 252.98037,45.705429 255.76421,45.672289 C 257.24908,45.146312 259.84409,44.646811 260.59250,46.477200 z M 255.04250,57.477200 C 254.28339,55.159335 254.79126,52.710901 257.70902,52.890193 C 260.57313,51.855428 261.28493,55.770358 258.56738,56.471447 C 257.44941,56.981330 256.20257,57.078738 255.04250,57.477200 z "
   id="path1665" />


  <path
   style="fill:#006699;fill-rule:evenodd;"
   d="M 268.64249,40.777199 C 267.86692,41.124684 266.49981,40.896991 266.29001,41.938110 C 266.60054,42.857529 266.70304,43.830677 266.80030,44.805497 C 267.18107,48.489691 267.45096,52.187236 267.59929,55.887962 C 267.63977,57.333985 267.64442,58.780705 267.64249,60.227200 C 270.67314,59.203259 273.70606,58.099532 276.88554,57.635671 C 278.12594,57.813040 278.44949,56.068774 277.61298,55.546333 C 277.80690,54.592049 277.98320,53.476514 277.42805,52.609492 C 276.93581,52.018794 276.02286,52.204486 276.27077,53.040930 C 275.88582,53.997699 274.67397,53.999598 273.84624,54.339753 C 273.25202,54.559222 272.09610,55.401769 272.10720,54.281513 C 271.42930,53.496325 270.66019,54.639100 270.78257,55.332206 C 270.35115,54.176913 270.55353,52.910915 270.37234,51.709141 C 270.24466,49.303060 270.31007,46.886509 270.46064,44.484421 C 270.66206,42.878549 270.86808,41.272544 271.14249,39.677200 C 270.30915,40.043863 269.47582,40.410536 268.64249,40.777199 z "
   id="path1710" />


  <path
   style="fill:#006699;fill-rule:evenodd;"
   d="M 246.99249,47.277201 C 246.38577,43.990615 242.47299,43.168751 239.63293,43.493137 C 236.56610,43.739769 233.67097,44.920076 230.94250,46.277201 C 230.91146,47.920724 230.83709,50.396035 232.90286,50.345429 C 233.42214,52.423256 233.54703,54.627468 233.80684,56.781947 C 233.99571,59.195215 234.06577,61.616726 234.29250,64.027200 C 237.65400,62.690380 234.62329,68.268980 237.16618,67.975264 C 238.33451,66.159850 235.66776,62.992029 239.10856,63.374249 C 240.94892,63.216018 243.70617,61.441627 244.72268,61.558341 C 244.78090,63.513588 245.57082,62.378959 245.29264,61.113506 C 246.62934,59.386393 249.00479,57.879486 248.23119,55.270281 C 248.26849,52.801716 244.81455,52.617009 243.99356,52.121819 C 245.56677,51.036050 247.32007,49.386934 246.99249,47.277201 z M 242.89250,47.927200 C 243.53541,50.735370 240.06499,51.403701 238.12869,52.173431 C 235.86371,53.113301 235.34848,47.950914 237.86969,48.412908 C 239.32175,47.660825 241.52074,46.345635 242.89250,47.927200 z M 242.84250,55.727200 C 243.08235,58.193321 238.83002,59.880431 237.43759,58.748504 C 235.91599,55.696922 239.16073,54.287311 241.73256,54.910027 C 242.18243,55.042765 242.58793,55.330489 242.84250,55.727200 z "
   id="path1740" />


  <path
   style="fill:#006699;fill-rule:evenodd;"
   d="M 188.59250,46.127199 C 188.24457,46.263771 188.15063,46.854108 188.52791,47.012209 C 188.86471,47.129160 189.35153,46.820214 189.30099,46.450019 C 189.22996,46.206084 188.81008,45.980799 188.59250,46.127199 z "
   id="path1925" />


  <path
   style="fill:#006699;fill-rule:evenodd;"
   d="M 189.49249,45.977200 C 189.69465,45.758232 190.04338,45.415186 189.74157,45.127359 C 189.54007,44.872680 189.17217,44.881106 188.91810,45.046755 C 188.61197,45.187916 188.70470,45.551239 188.83674,45.783306 C 188.97019,46.111610 189.19992,46.094526 189.49249,45.977200 z "
   id="path1930" />


  <path
   style="fill:#006699;fill-rule:evenodd;"
   d="M 189.29250,43.627199 C 189.28228,44.896119 191.11504,45.857886 190.04694,46.921622 C 191.62082,47.911424 195.41338,46.608746 194.58969,49.774040 C 195.80201,56.138512 195.62412,62.657307 196.29512,69.074497 C 196.15620,70.236254 197.89318,71.634111 197.64837,69.688350 C 196.87939,67.529336 199.84810,67.754951 201.18614,67.693020 C 202.74496,67.928022 204.93292,65.971057 206.05200,67.223461 C 205.80348,69.141666 208.30968,67.770876 208.20380,66.451997 C 209.00995,64.417816 211.59471,64.784736 213.01862,63.243139 C 214.64544,63.165993 213.26598,65.910608 213.49406,67.028352 C 212.92941,68.142735 214.22525,70.623239 214.81530,68.697120 C 214.83109,66.493581 214.60401,64.299105 214.46747,62.102227 C 216.26985,60.458639 217.73735,58.095371 217.23777,55.560417 C 217.01114,52.587941 213.89443,50.441655 211.02751,50.864944 C 210.21413,49.968589 213.43770,48.903834 213.84034,47.718366 C 216.46138,44.952062 215.35446,39.638113 211.60229,38.493679 C 206.32881,36.232796 200.38751,37.690505 195.31702,39.793644 C 193.68433,40.562269 192.02525,41.215640 190.24239,41.542146 C 189.09285,41.781281 187.80039,42.600891 189.29250,43.627199 z M 199.34250,47.427200 C 198.06683,45.710707 199.83049,43.917517 201.58066,43.710709 C 203.62352,43.272301 205.76894,42.340176 207.83241,43.243398 C 209.70059,43.731531 209.84439,46.174741 208.46757,47.298279 C 206.35363,49.562494 203.14204,50.177480 200.25565,50.758817 C 199.07689,50.230196 199.88705,48.384748 199.34250,47.427200 z M 206.29250,54.477200 C 207.93311,53.742549 209.48442,55.465534 209.01788,57.065039 C 208.84703,59.035816 206.83088,59.615352 205.27174,60.156448 C 204.01851,60.606130 201.06044,62.150626 200.94005,60.037361 C 200.82205,58.470899 199.53360,55.999695 201.60166,55.229974 C 203.13294,54.829133 204.69132,54.368669 206.29250,54.477200 z "
   id="path1935" />


  <path
   style="fill:#006699;fill-rule:evenodd;"
   d="M 155.89250,63.077200 C 156.04151,62.815340 156.30894,62.493609 156.10609,62.187804 C 155.93784,61.901937 155.52908,61.748406 155.24104,61.952249 C 154.89941,62.104077 154.79408,62.569743 155.08324,62.827365 C 155.25111,63.061014 155.58580,63.261209 155.86115,63.086358 C 155.87160,63.083305 155.89250,63.077200 155.89250,63.077200 z "
   id="path1990" />


  <path
   style="fill:#006699;fill-rule:evenodd;"
   d="M 220.59250,46.577200 C 219.51915,46.261935 218.30982,47.403618 218.99523,48.448860 C 219.01057,49.476541 218.75918,50.583023 218.80354,51.649931 C 218.80047,54.520055 219.18871,57.383114 219.74036,60.194127 C 220.12934,61.813439 220.59306,63.683304 222.08439,64.636999 C 223.65808,65.421043 225.59200,65.258313 227.16423,64.560924 C 228.60279,63.899430 229.72496,62.629376 230.15474,61.100006 C 231.02077,58.607943 230.76110,55.917361 230.31172,53.370976 C 229.98751,50.985499 229.56821,48.613757 229.11789,46.250067 C 229.25507,45.249454 228.65067,43.984573 227.50183,44.618475 C 226.54463,44.762071 225.52424,44.268145 224.61167,44.672861 C 224.61477,45.507353 225.22224,46.469513 225.44604,47.357779 C 226.41352,50.103011 227.21475,52.939784 227.34398,55.862984 C 227.49862,57.311272 227.39528,59.117194 226.03991,59.987008 C 225.12405,60.580803 223.65308,60.404304 223.17907,59.328696 C 222.09763,57.807885 223.21302,55.893098 222.59698,54.245711 C 222.29404,52.780466 222.33075,51.264433 222.38051,49.778108 C 222.49047,48.822069 222.85100,47.889791 222.75633,46.916075 C 222.15705,46.449456 221.30589,46.320726 220.59250,46.577200 z "
   id="path2030" />


  <path
   style="fill:#006699;fill-rule:evenodd;"
   d="M 299.94250,40.577202 C 300.86181,39.906189 301.95862,40.689415 302.76589,41.184552 C 303.61242,41.558607 304.20527,42.618959 305.01212,42.803352 C 304.78779,41.568122 304.64159,40.300520 304.63487,39.034326 C 304.59141,38.194301 304.87837,37.094357 303.67369,37.088904 C 301.25341,36.314854 298.40658,36.035332 296.11485,37.332322 C 293.10170,39.112874 291.21942,42.891067 292.04328,46.352546 C 292.69429,47.941460 294.61643,48.288931 296.14570,48.323960 C 297.80936,48.618685 299.70623,48.210090 301.14776,49.294235 C 302.06628,50.451090 301.06479,52.111828 299.85978,52.584186 C 297.85640,53.255174 295.66870,52.763006 293.79251,51.927200 C 294.40122,53.372407 293.87715,55.216870 295.01550,56.439816 C 295.82830,56.922640 295.03289,59.204204 296.50747,59.049950 C 297.32878,58.655477 296.15076,56.768303 297.62407,56.922453 C 298.71368,57.200728 299.84733,56.696918 300.82573,56.234625 C 303.27483,54.963762 304.87296,52.271018 304.79422,49.509314 C 304.84588,48.030586 304.12010,46.377376 302.59929,45.933024 C 300.70917,45.238141 298.62526,45.348232 296.74412,44.620764 C 295.45661,44.397728 295.16914,42.675889 295.94399,41.779591 C 296.65187,41.061185 297.57268,40.292407 298.64529,40.365139 C 299.53540,41.029945 297.78096,42.920798 299.56482,43.150793 C 300.81539,42.881652 299.52709,41.295939 299.94250,40.577202 z "
   id="path2135" />


  <path
   style="fill:#006699;fill-rule:evenodd;"
   d="M 91.642502,43.727200 C 90.834399,40.347123 90.168760,36.935436 89.492500,33.527199 C 87.485690,33.351391 84.347158,32.866638 83.197063,34.759356 C 82.300996,37.557299 82.434143,40.568830 81.894469,43.446568 C 81.563384,45.820838 81.163881,48.186846 80.642502,50.527201 C 78.378487,46.227769 76.054262,41.899437 74.747710,37.192470 C 73.404835,36.142953 71.248470,34.448906 70.196579,36.906680 C 69.497009,39.653079 70.049782,42.561109 69.581130,45.367458 C 68.912960,53.328212 67.437517,61.208902 65.392502,68.927200 C 67.434682,68.257672 67.485414,73.690605 69.213756,70.712053 C 69.972846,69.680015 70.993818,71.678968 72.265249,71.131950 C 74.613864,72.006972 73.179310,67.935993 73.555843,66.483053 C 73.656059,61.175146 73.453243,55.805968 74.542503,50.577200 C 77.365677,55.036867 79.888844,59.810607 80.942497,65.027200 C 83.733555,64.170347 79.573146,69.387224 83.150406,68.900997 C 85.529063,68.582998 84.369019,66.087041 84.256451,64.744609 C 86.837733,63.128392 84.980637,59.569753 85.871242,57.016268 C 86.191499,53.584462 86.648121,50.166078 87.208887,46.765525 C 88.705228,50.785066 89.517233,55.033343 90.489376,59.204581 C 91.378232,61.775443 91.091219,65.448676 92.609488,67.349572 C 93.620657,67.629563 93.708000,71.216008 94.531177,69.005949 C 94.358696,66.559410 98.127466,68.804906 96.963962,70.565049 C 96.254680,71.937040 97.942971,73.598056 98.071341,71.474539 C 97.765903,70.175498 98.048049,67.548184 99.541833,69.532321 C 101.99310,69.314035 99.041300,66.343736 98.867407,65.000309 C 95.818035,58.148954 93.397372,51.018239 91.642502,43.727200 z "
   id="path2140" />


  <path
   style="fill:#999999;fill-rule:evenodd;"
   d="M 340.14249,40.077202 C 339.06602,38.231123 336.08368,38.014937 334.82452,39.770145 C 333.43797,41.486055 334.42445,44.430778 336.59758,44.901650 C 338.54712,45.359917 340.64770,43.708927 340.57889,41.686762 C 340.56763,41.123644 340.36639,40.586515 340.14249,40.077202 z "
   id="path2150" />


  <path
   style="fill:#666666;fill-rule:evenodd;"
   d="M 334.24249,42.377201 C 333.92312,43.749253 334.73512,45.215340 335.96366,45.839756 C 337.03215,46.409408 338.39945,46.189065 339.33019,45.450176 C 340.15548,44.822793 340.71147,43.770858 340.55337,42.719981 C 340.03697,43.275148 339.81179,44.098092 339.11298,44.477391 C 338.87096,44.583761 338.62720,44.683277 338.38197,44.783377 C 337.08124,45.247420 335.45795,44.780779 334.71935,43.583242 C 334.50192,43.209448 334.33496,42.800119 334.24249,42.377201 z "
   id="path2160" />


  <path
   style="fill:#996600;fill-rule:evenodd;"
   d="M 334.44250,44.227200 C 334.18827,43.914521 334.32793,43.070659 334.07694,43.043675 C 333.77384,44.196441 334.07172,45.542169 335.04155,46.296341 C 335.53334,46.744916 336.13410,47.063322 336.80335,47.124809 C 337.65433,47.248404 338.53066,46.973591 339.18338,46.419712 C 339.73355,46.091613 340.03258,45.465144 340.32339,44.935432 C 340.45699,44.605945 340.63941,43.466496 340.28676,44.304961 C 339.96061,44.860650 339.54000,45.366199 338.96913,45.678096 C 338.39108,46.068481 337.64442,46.220025 336.95705,46.123384 C 335.85742,46.013379 334.86220,45.244664 334.44250,44.227200 z "
   id="path2165" />


  <path
   style="fill:#999999;fill-rule:evenodd;"
   d="M 328.84250,62.127200 C 327.35585,63.466675 327.75920,66.201990 329.54108,67.090288 C 330.71262,67.805703 332.30447,67.554562 333.25001,66.577535 C 334.34747,65.552197 334.56502,63.717902 333.61660,62.521007 C 332.67787,61.041342 330.39476,60.822497 329.06935,61.882058 C 328.98685,61.957033 328.91084,62.039134 328.84250,62.127200 z "
   id="path2195" />


  <path
   style="fill:#996600;fill-rule:evenodd;"
   d="M 328.19250,65.677200 C 327.87055,66.364990 328.04569,67.219877 328.34261,67.894778 C 328.99263,69.402620 330.83886,70.375998 332.43231,69.854438 C 333.16230,69.604761 333.95721,69.286178 334.37128,68.585855 C 334.85559,68.104709 335.05552,67.446070 335.10474,66.780565 C 335.20147,66.179578 334.98300,64.972175 334.64067,64.808125 C 334.77141,65.631114 334.55655,66.484577 334.05685,67.150663 C 333.46382,68.382447 331.90582,68.821409 330.64905,68.502870 C 329.73555,68.326021 328.96539,67.631238 328.52078,66.833621 C 328.33326,66.474554 328.19307,66.087267 328.19250,65.677200 z "
   id="path2200" />


  <path
   style="fill:#666666;fill-rule:evenodd;"
   d="M 329.04251,67.577200 C 330.37718,69.082570 333.22117,68.942872 334.13912,67.047462 C 334.73668,66.121596 334.99414,64.705934 334.20838,63.828953 C 334.33746,64.883442 333.94064,66.003093 333.11127,66.699570 C 331.92016,67.858874 329.86170,67.718426 328.77303,66.489548 C 328.45937,66.176193 328.02901,65.415641 328.28314,66.269594 C 328.42668,66.759406 328.72553,67.184516 329.04251,67.577200 z "
   id="path2205" />


  <path
   style="fill:#999999;fill-rule:evenodd;"
   d="M 29.342501,38.377201 C 29.150315,41.346680 32.883258,43.678164 35.422197,42.012465 C 37.378031,40.990974 38.312787,38.329477 37.122022,36.395400 C 35.881474,34.119519 32.435546,33.499675 30.595399,35.414771 C 29.801195,36.179108 29.322474,37.270894 29.342501,38.377201 z "
   id="path2245" />


  <path
   style="fill:#666666;fill-rule:evenodd;"
   d="M 38.242500,37.527199 C 37.971407,37.292021 37.725326,36.898151 37.368096,36.846144 C 37.413176,37.202967 37.605963,37.546798 37.611988,37.922774 C 37.740948,39.035989 37.410008,40.221786 36.610568,41.027301 C 36.013859,41.705244 35.232691,42.244473 34.339463,42.432108 C 33.444426,42.720669 32.455127,42.538463 31.638716,42.104173 C 31.149843,42.106811 31.774399,42.672780 31.932424,42.820055 C 32.697658,43.523019 33.723510,43.972760 34.775871,43.904929 C 36.129661,43.858059 37.415637,43.110304 38.155319,41.980454 C 38.879012,40.929621 39.094149,39.521940 38.605995,38.328428 C 38.504288,38.053051 38.380252,37.786291 38.242500,37.527199 z "
   id="path2280" />


  <path
   style="fill:#996600;fill-rule:evenodd;"
   d="M 37.892502,36.877201 C 38.974047,38.416282 39.298970,40.662260 38.020129,42.190374 C 36.861227,43.770716 34.473314,44.455220 32.748754,43.404607 C 34.114286,45.476858 37.456831,45.535408 38.962106,43.587567 C 40.405679,42.048859 40.517183,39.305099 38.793914,37.925436 C 38.466506,37.601351 38.129773,37.276349 37.892502,36.877201 z "
   id="path2285" />


  <path
   style="fill:#999999;fill-rule:evenodd;"
   d="M 45.992500,54.777201 C 44.032958,52.609747 40.017982,52.979039 38.617837,55.599658 C 37.027433,58.039007 38.352595,61.730413 41.164560,62.545575 C 43.935071,63.486416 47.281124,61.315054 47.319624,58.332570 C 47.388544,57.035444 46.939325,55.686738 45.992500,54.777201 z "
   id="path2295" />


  <path
   style="fill:#666666;fill-rule:evenodd;"
   d="M 47.442501,59.427200 C 47.425362,58.984786 47.314561,57.991943 47.231509,58.994855 C 47.048652,60.114727 46.396195,61.104035 45.473118,61.756597 C 43.657998,63.260723 40.703288,63.046009 39.167202,61.238570 C 38.623447,60.712005 38.292045,59.849736 38.045184,59.263157 C 37.944209,60.814919 38.708350,62.341981 39.978630,63.227667 C 41.745823,64.591952 44.467790,64.325556 46.004652,62.730782 C 46.844703,61.855201 47.507963,60.676781 47.442501,59.427200 z "
   id="path2305" />


  <path
   style="fill:#996600;fill-rule:evenodd;"
   d="M 38.492500,61.527200 C 38.211656,64.271134 40.818726,66.865703 43.573772,66.484490 C 46.272974,66.303895 48.383776,63.489810 47.790001,60.851126 C 47.675228,60.267751 47.375479,59.345933 47.324844,60.487201 C 46.684371,63.112243 43.587178,64.871146 41.042451,63.811259 C 39.956113,63.386932 39.041059,62.553764 38.492500,61.527200 z "
   id="path2310" />


</g>

</svg>
