<?xml version="1.0" encoding="UTF-8" standalone="no"?>
<!DOCTYPE svg PUBLIC "-//W3C//DTD SVG 1.0//EN"
"http://www.w3.org/TR/2001/REC-SVG-20010904/DTD/svg10.dtd">
<!-- Created with Sodipodi ("http://www.sodipodi.com/") -->
<svg
   id="svg1931"
   sodipodi:version="0.33"
   xmlns="http://www.w3.org/2000/svg"
   xmlns:sodipodi="http://sodipodi.sourceforge.net/DTD/sodipodi-0.dtd"
   xmlns:xlink="http://www.w3.org/1999/xlink"
   width="80pt"
   height="100.0000pt"
   sodipodi:docbase="/home/lolo/cvs/monkey-bubble/pixmaps"
   sodipodi:docname="/home/lolo/cvs/monkey-bubble/pixmaps/right_monkey.svg">
  <defs
     id="defs1933" />
  <sodipodi:namedview
     id="base" />
  <g
     id="g1652"
     transform="translate(-241.2747,-33.22717)">
  
  <g
   transform="matrix(5.000000e-2,0.000000,0.000000,5.000000e-2,43.00525,34.51033)"
   id="g555"
   style="font-size:12;fill:none;">
    <path
   style="fill-rule:evenodd;fill:#003366;"
   d="M4315,911l-14,10l-8,9l-3,11v12l4,15l2,15l4,14l3,11l4,11l6,16l8,15l8,14      l10,14l10,12l12,11l13,10l15,10l-2,2l-19,7l-15,10l-14,11l-11,13l-22,28l-17,28l-13,28l-5,14l-3,15l-5,28v28l4,28l10,30l-2,16      l-1,15v13l2,13l2,10l4,9l4,8l6,7l5,4l7,3l8,1l10,1l10-2l11-3l12-4l14-5v46l124,235l-25,13l-22,16l-21,16l-17,19l-17,19l-14,22      l-13,22l-10,25v59l10,9l11,8l9,6l10,5l8,2l8,1v-1h1h2h4l8-2l4,6l6,5l6,4l7,3l7,1h8l19-2l6,8l8,7l8,4l10,3l9-1l11-1l12-5l13-5      l148-229l10,9l2,1l3,2l6,4l10,5l12,5l10,1l12-1l10-3l12-3l2-8l1-4l2-3v-5l1-4l1-8l-1-10l-1-2v-1v-2v-4l-5-20l-32-18l-29-14      l-28-10l-26-4l-26-2l-23,4l-23,8l-20,12l-76-112l-6-24l208,4l34,7l8,1l9,2l18,4l16,2l8,1l9,2l34,6h7l8,1l16,2l32,3l30,2l31,2      l28-1l14-1h15l27-2l28-2l12-3l13-2l26-4l24-6l25-6l-90,144l-13-7l-13-3l-15-1l-16,1l-18,1l-19,5l-21,7l-22,9v38l37,43l132,22      l13,20l11,20l4,9l5,10l4,9l5,10l5,16l1,8l2,9v7l1,8v7l1,8l2,11l4,9l5,7l7,7l7,3l9,3h9l12-1l50-36h10l10,1l4-1h5h10l8-2l8-2l3-2      l4-1l8-2l2-3l3-2l5-4l4-5l2-3l3-2l1-4l2-3l3-6l2-7l1-4l2-3l6-3l6-4l2-3l3-2l5-6l3-8l3-8l1-10l1-10l-4-20l-4-10l-4-9l-14-20      l-9-10l-10-10l-12-12l-13-10l-14-10l-15-10l-17-12l-18-10l-20-11l-20-10l94-172v-67l-49-23l6-5l11-3l3-2l5-2l7-3l11-2l11-5l15-4      l15-6l19-5l15-6l13-3l10-3l9,1l19-5l26-2l31-2l38,1l26,1l12,1l13,3l23,7l22,9l19,11l19,13l17,15l16,19l8,11l4,5l5,6l3,4l4,5l3,4      l4,5l5,6l5,6l4,4l4,4v6v9v7v4v1l1,2l-3,17l-5,18l-2,2h-1v1v2l-2,6l-5,12l-8,10l-4,5l-3,6l-5,4l-4,5l-8,10l-18,17l-10,8l-9,8      l-22,13l-12,5l-11,6l-24,9l-13,4l-12,4l-28,3l-27,1l-28-1l-26-2l-53-46l-3-6l-1-4l5-10l4-6l7-5l9-6l11-4l11-6l15-6l15-6l19-5      l19-6l21-6l23-6l26-5l13-13l10-11l6-11l3-10l-2-10l-4-9l-8-9l-12-7l-25-5l-23-3l-22-2h-20h-21l-19,2l-18,3l-16,6l-17,5l-15,8      l-15,8l-13,11l-13,10l-11,13l-19,30l-4,11l-5,22v47h-1v1l1,4l2,5l4,9v1l1,2l2,4l4,7l2,5l3,4v1l1,2l2,2l4,6l9,13l11,12l8,9l11,9      l37,20l19,8l20,7l19,5l20,4l20,3l21,2l16-1l8-1h9l34-6l16-5l8-3l9-2l34-14l30-17l27-15l22-15l20-13l16-15l16-16v-2v-1h1l2-2l4-4      l8-8l15-18l6-10l6-8l4-8l5-5l2-6l3-3l1-3h2l2-6l2-9l3-16l1-14l-1-16l-2-14l-9-33l-11-29l-7-15l-7-13l-15-25l-19-23l-20-21      l-24-19l-13-9l-12-7l-30-16l-29-13l-30-11l-29-7l-30-6l-30-2h-30l-29,3l-48,7l-48,11l-48,14l-48,17l-160,59l-4,2h-6l-25,6l-21,5      l-10,1l-8,1h-8h-6l-52-42l-71-82v-29l14-4l9-4l12-7l10-5l8-5l1-2l2-1l4-2l5-3l14-15l14-14l10-11l9-10l7-14l1-4l2-3l4-6l10-28      l2-15l2-14v-15l-1-14l-3-11l-4-10l-5-9l-6-8l-9-8l-10-6l-11-6l-13-4l-15-5l-16-4l-18-3l-19-2l-21-2h-22h-24l-25,1l44-191      l344-207l2-2l4-1l9-2l11-2l15-2l17-4l16-4l12-4l5-2l6-1l7-4l6-4l2-4v-2v-1h1l15-8l14-5l13-4l12-2l9-2h9l7,1l6,4h37l56-66l7-11      l7-10l5-10l4-10l1-10v-9l-1-9l-3-8l-5-10l-7-8l-8-8l-9-8l-12-8l-13-8l-15-8l-15-6l-80,46l-73-52l-70,45l-61-36l-72,54l-2-2l-3-1      h-4l-5,1h-8l-9,2l-10,2l-11,3l-14,8l-11,9l-19,18l-14,16l-6,8l-3,9l-4,7l-1,8v16l5,14l4,7l7,8l36,25l-222,122l-32-25l-12,10      l23,31l-45,32l-51,172l-45,62l-33-10l-6-52l-13-9l-8-8l-7-4l-5-4l-7-5l-7-4l-4-1l-2-2l-32-13l-14-4l-13-1l-28-3h-26l-26,2l-25,5      l-25,7l-24,9l-24,12L4315,911z M4449,889l10-1l10-1h6l36,1l13,4l12,3l4,2l10,5l10,3l6,4l4,2l5,2h2l2,1l3,3l5,3l8,5l5,4l7,6      l-1,33l-29,4v-47l-35-10l-31-7l-30-4l-27-1l-27,1l-24,4l-23,7l-20,10l44-3l46,3l44,7l46,13l-2,37l-87-8l-1,6l-3,8v2l-13,44l13,9      l8-4l9-11l9-7l7-5l7-1l5,1l4,5l3,7l2,11l-18,5l-16,7l-15,9l-13,11l-4,31l-32-16l-11-7l-9-6l-16-14l-13-16l-9-17l-7-19l-2-11v-10      v-22l5-23v-1l1-4l18-11l4-4l2-2v-1h1h2l10-6l12-8l6-3l7-1l8-3h10l12-5L4449,889z M4602,1041l-19-15l-15-10l-13-7l-9-2l11-7l14-4      l14-1l17,2V1041z M4700,995l15-19l3,24L4700,995z M4609,1041l25-37l24,5l23,6l19,7l18,8l14,8l13,10l9,10l8,11l-26-9l-23-6l-23-6      l-19-3l-19-4l-16-1l-15-1L4609,1041z M5210,415l43,40l62-56l71,49l80-49l1,1l47,56l-41,75l-114,24l-23,5l-28,11l-26,12l-26,11      l-24,12l-47,22l-43,22l-41,20l-37,19l-35,18l-30,18l-29,15l-25,15l-23,14l-18,14l-16,12l-12,12l-10,10l-5,10l-2,13l-38,184      l-38,18l-14,6l-16-26l22-33l-12-8l-13,7l29-206l15-20l32-25l20,28l15-6l-15-34l355-194l-8-16l-19,4l-19,2l-14,4l-12,4l-8,4      l-18,7l-15,6h-8l-7-1l-7-4l-6-5l-7-8l-4-8l-3-9v-8l3-15l4-10l7-8l15-11l8-3h10l12,1l12,6L5210,415z M5589,1552l2,13l2,16l-48,9      l-43,14l-41,16l-36,21l-21,13l-17,16l3,40l24,19l12,8l6,4l3,2l4,3l11,6l12,7l24,12l22,7h2h1l2,1l6,2l12,3l22,2h22l28-5l28-8      l14-7l15-6l6-4l3-2l4-1l14-7l2-3l3-2l6-4l12-9l10-10l2-3l3-2l6-4l8-12l4-6l2-3l3-2l1-4l2-3l4-6l8-12l6-14l6-14l4-15l2-8l1-4l2-3      l1-17l1-16l-3-16l-3-14l-9-21l-9-18l-15-23l-16-19l-19-19l-19-15l-12-8l-11-6l-25-11l-27-9l-27-7l-34-5l-32-3l-32-1l-32,2l-32,3      l-32,7l-32,7l-32,11l-47,14l-45,14l44-21l44-17h1l74-25l76-17l28-4l30-1l30,1l30,5l28,5l30,9l29,11l30,13l23,13l22,15l18,17l8,9      l9,11l13,21l12,25l4,12l5,14l8,29v5l1,6l2,12v13v14l-4,26l-8,24l-2,2l-1,1v2l-2,6l-5,12l-15,20l-5,4l-4,5l-9,10l-11,8l-6,4l-3,2      l-2,3l-26,16l-11,6l-5,3l-42,16l-21,6l-20,7l-1,1h-2l-29,6l-28,5l-36,2h-18h-9l-8,1l-20-2l-23-4l-20-3l-21-15l-17-13l-15-13      l-12-12l-11-12l-7-10l-5-10l-2-9l-1-7l1-5l2-11l4-10l4-11l6-11l5-13l7-12l17-27l4-8l6-6l14-11l18-9l10-4l12-2l25-5l14-2h16h33      L5589,1552z M5222,1553l-9,2l-33,4l-17,2h-5l-4,1l-8,2h-10h-5l-4,1l-18,2l-38,4l-42,2l-43,2h-23h-12h-6h-3l-2,1l-47,2h-8l-2-1      h-1h-2h-4h-8h-16h-33l-34-1h-34l-23-9l-5-1l-25-3l-217-26l-15,9v19l-2,36l126,167l3,5l28-31l102-17l47,28l1,10l1,27l-59-27l-5-2      l-27-7v26l-117,181l-3,6l-12,26l-45,17l-4-43l-1-7l49-75l-13-15l-61,64l-10,10l-2,47l-23-28l11-27l1-2l5-13l72-69l-17-14l-9,1      l-9,4l-11,5l-11,9l-13,9l-13,12l-14,13l-15,17l-3,3l-8,9l4,12l-7,44l-17-10l-1-20l1-15l1-12l2-8l1-6l4-2l5-18l9-16l10-16l13-15      l14-16l17-14l19-14l21-13h14l14-9v-4v-18l-102-196l-32-60h258l18-1l19-2l18-4l4-2l2-1h3l10-2l8-4l4-2l2-1h3l18-8l16-9l17-10l8-7      l9-6l-11,4l-13,2l-12,3l-24,5l-25,4l-25,4h-14h-7l-6,1l-26,2h-28h-27l-30-2l-29-2l-30-4l-30-4l-32-6l-31-6l-32-8l-32-7l-11-16      l-9-14l-7-15l-5-14l-5-30l-1-15l3-14l4-22l9-22l12-22l7-11l9-10l8-12l10-11l23-22l26-22l30-22l4,2l5,3l10,6l19,12l18,10l4,2l5,3      l10,6l8,4l4,2l5,3l18,9l16,8l17,8l15,6l15,6l14,5l15,6l6,1l7,2l14,4l12,3l6,1l7,2h10h5l6,1h10h11l9-2l10-2l8-3l9-2l6-5l1-2l2-1      l4-2l6-6l1-2l2-1l4-2l5-8l2-4l1-2l2-1l4-8l5-8l6,16l5,18l4,17l4,18l2,16l2,17v16v17l-1,3l-3,18l-2,4l-1,2v3l-2,10l-6,18l-7,20      l-5,9l70-97l12-3l8,22l3,10l4,11l2,9l3,10l4,17l4-1l124,102l-73,38l221-49l93,36l-92,229l-19-8l4,2l18,8l18,9l33,18l15,8l7,4      l8,5l27,18l22,16l10,8l10,9l16,16l6,8l3,4l4,5l3,14l1,8l-21,30l-47-48l-17-17l-18,15l55,57l1,2v5l1,6l-1,4v5l-3,8l-2,1l-1,2      l-2,4l-8,4h-3l-2,1l-4,2h-6l-6,1h-13l-1-6v-5l-2-10l-8-22l-11-20l-14-20l-5-6l-4-5l-9-10l-21-22h-23l30,48l1,2l2,3l4,6l6,11      l5,10l4,11v2l1,10l1,10l-2,8l-3,8l-5,6l-4,3l-3,4l-5,2l-4,3l-10,5l-3-31l-6-30l-9-24l-9-20l-11-20l-3-4l-8-12l-4-6l-2-3l-1-2      l-16-23l-25-4l-21-4l-21-4l-17-2l-17-4l-13-2l-13-4l-9-2l-9-4l-5-2l-5-4l-1-2l-1-4l3-2l3-2l7-2l5-2l19-5l24-1l26,1l31,6l31-14      l18-19l4-9L5222,1553z M5048,1120l3,14l2,16l-2,14l-4,16l-8,12l-9,12l-13,12l-7,6l-6,7l-5,2l-4,3l-8,6l-18,12l-21,12l-23,12      l-25,4l-19-51l19-18l-19-31l-8-12l9-13l14-10l16-9l21-6l23-6l27-3l30-2L5048,1120l-20-11l-18-7l-18-6l-17-3l-18-1l-17,1l-16,3      l-16,6l-83,44l-31-42l-13-11l44-27l23-5l22-3l21-3l20-1l18-1l17,1l16,2l15,4l13,3l12,5l10,6l10,8l8,7l7,9l6,10L5048,1120z       M4782,1150l1,9v13v12l-2,10l-2,10l-4,8l-2,1l-1,2l-2,4l-6,6l-6,5h-3l-2,1l-4,2l-9,2h-10h-10l-13-2l-7-2l-6-1l-14-4l-14-5      l-24-10l-21-10l-18-9l-15-8l-13-9l-10-8l-8-8l-5-7l-4-9l2-8l-6,1l-14,1l-12,1h-12h-9l-9-2l-7-2l-6-4l-4-3l-7-5l-4-4l-5-8l-1-10      l5-10l11-11l1-1l7-11l11-8l11-5l15-2h15l18,4l19,6l22,10l2,11l-2,15l20-2l19-1l18-1l18,1l16,1l15,2l14,2l13,4l11,3l10,4l9,4l9,6      l12,13l5,7L4782,1150z"
   id="path556" />

  </g>

  <g
   transform="matrix(5.000000e-2,0.000000,0.000000,5.000000e-2,43.00525,34.51033)"
   id="g557"
   style="font-size:12;fill:none;">
    <path
   style="fill-rule:evenodd;fill:#CF7E2E;"
   d="M4469,887l-10,1l-10,1l-15,3l-12,5h-10l-8,3l-7,1l-6,3l-12,8l-10,6h-2h-1v1      l-2,2l-4,4l20-10l23-7l24-4l27-1l27,1l30,4l31,7l35,10v47l29-4l1-33l-7-6l-5-4l-8-5l-5-3l-3-3l-2-1h-2l-5-2l-4-2l-6-4l-10-3      l-10-5l-4-2l-12-3l-13-4l-36-1H4469z"
   id="path558" />

  </g>

  <g
   transform="matrix(5.000000e-2,0.000000,0.000000,5.000000e-2,43.00525,34.51033)"
   id="g559"
   style="font-size:12;fill:none;">
    <path
   style="fill-rule:evenodd;fill:#FF9F9F;"
   d="M4341,940v1l23-1l21,2l17,3l16,5l11,5l10,7l6,8l5,10l1-6l87,8l2-37l-46-13      l-44-7l-46-3l-44,3l-18,11L4341,940z"
   id="path560" />

  </g>

  <g
   transform="matrix(5.000000e-2,0.000000,0.000000,5.000000e-2,43.00525,34.51033)"
   id="g561"
   style="font-size:12;fill:none;">
    <path
   style="fill-rule:evenodd;fill:#FFCCCC;"
   d="M4447,988l3-8l-5-10l-6-8l-10-7l-11-5l-16-5l-17-3l-21-2l-23,1l-5,23v22v10      l2,11l7,19l9,17l13,16l16,14l9,6l11,7l32,16l4-31l13-11l15-9l16-7l18-5l-2-11l-3-7l-4-5l-5-1l-7,1l-7,5l-9,7l-9,11l-8,4l-13-9      l13-44V988z"
   id="path562" />

  </g>

  <g
   transform="matrix(5.000000e-2,0.000000,0.000000,5.000000e-2,43.00525,34.51033)"
   id="g563"
   style="font-size:12;fill:none;">
    <path
   style="fill-rule:evenodd;fill:#CF7E2E;"
   d="M4546,1007l9,2l13,7l15,10l19,15v-44l-17-2l-14,1l-14,4L4546,1007z"
   id="path564" />

  </g>

  <g
   transform="matrix(5.000000e-2,0.000000,0.000000,5.000000e-2,43.00525,34.51033)"
   id="g565"
   style="font-size:12;fill:none;">
    <path
   style="fill-rule:evenodd;fill:#CF7E2E;"
   d="M4634,1004l-25,37l12-2l15,1l16,1l19,4l19,3l23,6l23,6l26,9l-8-11l-9-10      l-13-10l-14-8l-18-8l-19-7l-23-6L4634,1004z"
   id="path566" />

  </g>

  <g
   transform="matrix(5.000000e-2,0.000000,0.000000,5.000000e-2,43.00525,34.51033)"
   id="g567"
   style="font-size:12;fill:none;">
    <path
   style="fill-rule:evenodd;fill:#FFCCCC;"
   d="M5253,455l-43-40l-93,48l-12-6l-12-1h-10l-8,3l-15,11l-7,8l-4,10l125,31l19-4      l8,16l135,29l23-5l108-92v-63l-1-1l-80,49l-71-49L5253,455z"
   id="path568" />

  </g>

  <g
   transform="matrix(5.000000e-2,0.000000,0.000000,5.000000e-2,43.00525,34.51033)"
   id="g569"
   style="font-size:12;fill:none;">
    <path
   style="fill-rule:evenodd;fill:#CF7E2E;"
   d="M5336,560l-135-29l-355,194l15,34l-15,6l-20-28l-32,25l-15,20l-29,206l13-7      l12,8l-22,33l16,26l14-6l76-202l2-13l5-10l10-10l12-12l16-12l18-14l23-14l25-15l29-15l30-18l35-18l37-19l41-20l43-22l47-22      l24-12l26-11l26-12L5336,560z"
   id="path570" />

  </g>

  <g
   transform="matrix(5.000000e-2,0.000000,0.000000,5.000000e-2,43.00525,34.51033)"
   id="g571"
   style="font-size:12;fill:none;">
    <path
   style="fill-rule:evenodd;fill:#FF9F9F;"
   d="M5473,531l41-75l-47-56v63l-108,92L5473,531z"
   id="path572" />

  </g>

  <g
   transform="matrix(5.000000e-2,0.000000,0.000000,5.000000e-2,43.00525,34.51033)"
   id="g573"
   style="font-size:12;fill:none;">
    <path
   style="fill-rule:evenodd;fill:#FF9F9F;"
   d="M5049,488l-3,15v8l3,9l4,8l7,8l6,5l7,4l7,1h8l15-6l18-7l8-4l12-4l14-4l19-2      L5049,488z"
   id="path574" />

  </g>

  <g
   transform="matrix(5.000000e-2,0.000000,0.000000,5.000000e-2,43.00525,34.51033)"
   id="g575"
   style="font-size:12;fill:none;">
    <path
   style="fill-rule:evenodd;fill:#89541F;"
   d="M4783,1042l38-18l38-184L4783,1042z"
   id="path576" />

  </g>

  <g
   transform="matrix(5.000000e-2,0.000000,0.000000,5.000000e-2,43.00525,34.51033)"
   id="g577"
   style="font-size:12;fill:none;">
    <path
   style="fill-rule:evenodd;fill:#CF7E2E;"
   d="M5591,1565l-2-13l-38-3h-33h-16l-14,2l-25,5l-12,2l-10,4l-18,9l-14,11l-6,6      l-4,8l-17,27l-7,12l-5,13l-6,11l-4,11l-4,10l-2,11l-1,5l1,7l9,10l10,10l4,4l2,2l1,1l2,2l10,10l8,7l9,8l18,15l16,11l16,10l14,6      l14,5l20,2l8-1h9h18l36-2l28-5l29-6h2l1-1l20-7l21-6l42-16l5-3l19-20l18-20l16-22l3-6l4-5l8-10l6-12l3-6l4-5l12-23l2-7l3-6l6-12      l10-24l-2-12l-1-6v-5l-8-29l-5-14l-4-12l-12-25l-13-21l-9-11l-8-9l-18-17l-22-15l-23-13l-30-13l-29-11l-30-9l-28-5l-30-5l-30-1      l-30,1l-28,4l-76,17l-74,25h-1l-44,17l-44,21l45-14l47-14l32-11l32-7l32-7l32-3l32-2l32,1l32,3l34,5l27,7l27,9l25,11l11,6l12,8      l19,15l19,19l16,19l15,23l9,18l9,21l3,14l3,16l-1,16l-1,17l-2,3l-1,4l-2,8l-4,15l-6,14l-6,14l-8,12l-4,6l-2,3l-1,4l-3,2l-2,3      l-4,6l-8,12l-6,4l-3,2l-2,3l-10,10l-12,9l-6,4l-3,2l-2,3l-14,7l-4,1l-3,2l-6,4l-15,6l-14,7l-28,8l-28,5h-22l-22-2l-12-3l-6-2      l-2-1h-1h-2l-22-7l-24-12l-12-7l-11-6l-4-3l-3-2l-6-4l-12-8l-24-19l-3-40l17-16l21-13l32-45l23-10l21-7l19-7l18-4l15-4l15-1      l12-1L5591,1565z"
   id="path578" />

  </g>

  <g
   transform="matrix(5.000000e-2,0.000000,0.000000,5.000000e-2,43.00525,34.51043)"
   id="g579"
   style="font-size:12;fill:none;">
    <path
   style="fill-rule:evenodd;fill:#89541F;"
   d="M5726,1759l11-6l26-16l2-3l3-2l6-4l11-8l9-10l4-5l5-4l15-20l5-12l2-6v-2l1-1      l2-2l8-24l4-26v-14v-13l-10,24l-6,12l-3,6l-2,7l-12,23l-4,5l-3,6l-6,12l-8,10l-4,5l-3,6l-16,22l-18,20L5726,1759z"
   id="path580" />

  </g>

  <g
   transform="matrix(5.000000e-2,0.000000,0.000000,5.000000e-2,43.00525,34.51043)"
   id="g581"
   style="font-size:12;fill:none;">
    <path
   style="fill-rule:evenodd;fill:#89541F;"
   d="M5593,1581l-2-16l-11-3l-12,1l-15,1l-15,4l-18,4l-19,7l-21,7l-23,10l-32,45      l36-21l41-16l43-14L5593,1581z"
   id="path582" />

  </g>

  <g
   transform="matrix(5.000000e-2,0.000000,0.000000,5.000000e-2,43.00525,34.51043)"
   id="g583"
   style="font-size:12;fill:none;">
    <path
   style="fill-rule:evenodd;fill:#89541F;"
   d="M5444,1797l20,3l23,4l-14-5l-14-6l-16-10l-16-11l-18-15l-9-8l-8-7l-10-10l-2-2      l-1-1l-2-2l-4-4l-10-10l-9-10l2,9l5,10l7,10l11,12l12,12l15,13l17,13L5444,1797z"
   id="path584" />

  </g>

  <g
   transform="matrix(5.000000e-2,0.000000,0.000000,5.000000e-2,43.00525,34.51043)"
   id="g585"
   style="font-size:12;fill:none;">
    <path
   style="fill-rule:evenodd;fill:#CF7E2E;"
   d="M5236,1526l-23,29l9-2l-64,178h34l-4-2l19,8l92-229l-93-36l-221,49l73-38      l-124-102l-4,1l-4-17l-3-10l-2-9l-4,7l-3,8l-7,16l-16,30l-10,14l-10,15l-24,28l-30,26l-32,26l-36,24l-40,24l14,2l5,1l23,9h34      l34,1h33h16h8h4h2h1l2,1h8L5236,1526z"
   id="path586" />

  </g>

  <g
   transform="matrix(5.000000e-2,0.000000,0.000000,5.000000e-2,43.00525,34.51043)"
   id="g587"
   style="font-size:12;fill:none;">
    <path
   style="fill-rule:evenodd;fill:#89541F;"
   d="M5213,1555l23-29l-343,52l47-2l2-1h3h6h12h23l43-2l42-2l38-4l18-2l4-1h5h10      l8-2l4-1h5l17-2L5213,1555z"
   id="path588" />

  </g>

  <g
   transform="matrix(5.000000e-2,0.000000,0.000000,5.000000e-2,43.00525,34.51043)"
   id="g589"
   style="font-size:12;fill:none;">
    <path
   style="fill-rule:evenodd;fill:#89541F;"
   d="M4906,1303l-12,3l-70,97h-1l-22,36l11-4l-9,6l-8,7l-17,10l-16,9l-18,8h-3l-2,1      l-4,2l-8,4l-10,2h-3l-2,1l-4,2l-18,4l-19,2l-18,1h-258l32,60h39v-8l15-9l217,26l11,1l40-24l36-24l32-26l30-26l24-28l10-15l10-14      l16-30l7-16l3-8l4-7l-4-11l-3-10L4906,1303z"
   id="path590" />

  </g>

  <g
   transform="matrix(5.000000e-2,0.000000,0.000000,5.000000e-2,43.00525,34.51043)"
   id="g591"
   style="font-size:12;fill:none;">
    <path
   style="fill-rule:evenodd;fill:#FFCCCC;"
   d="M4851,1316v-17v-16l-2-17l-2-16l-4-18l-4-17l-5-18l-6-16l-5,8l-4,8l-2,1l-1,2      l-2,4l-5,8l-4,2l-2,1l-1,2l-6,6l-4,2l-2,1l-1,2l-6,5l-9,2l-8,3l-10,2l-9,2h-11h-10l-6-1h-5h-10l-7-2l-6-1l-12-3l-14-4l-7-2l-6-1      l-15-6l-14-5l-15-6l-15-6l-17-8l-16-8l-18-9l-5-3l-4-2l-8-4l-10-6l-5-3l-4-2l-18-10l-19-12l-10-6l-5-3l-4-2l-30,22l-26,22      l-23,22l-10,11l-8,12l-9,10l-7,11l-12,22l-9,22l-4,22l6,12l9,13l10,11l12,12l12,10l14,10l15,9l18,9l17,7l19,7l20,6l23,6l22,4      l25,5l25,3l28,4l25-2l25-2l11-2l12-1l11-2l12-1l20-5l20-4l18-6l18-6l15-8l15-8l13-10l12-9l10-11l10-11l8-12l7-12L4851,1316z       M4561,1287l5-11l9-6l19-5l17-2l15-1l14,2l11,2l10,5l8,5l7,8v34l16,56l-27-1l-13-1h-11l-21-3l-17-3l-9-3l-7-2l-7-3l-5-2l-9-7      l-4-4l-2-3l-15-1l-2-11l4-9l18-7l20,10l60-4l2-15l-4-7l-5-5l-8-5l-9-2l-13-2h-13h-17L4561,1287z M4394,1310h-11l1-69l13-15      l48-25l66,23l7,41l-10,36l-15-1v-4l-2,4l-3,6l-4,4l-5,6l-16,8l-10,4l-11,4L4394,1310z"
   id="path592" />

  </g>

  <g
   transform="matrix(5.000000e-2,0.000000,0.000000,5.000000e-2,43.00525,34.51043)"
   id="g593"
   style="font-size:12;fill:none;">
    <path
   style="fill-rule:evenodd;fill:#003366;"
   d="M4566,1276l-5,11l17-3h17h13l13,2l9,2l8,5l5,5l4,7l-2,15l-60,4l-20-10l-18,7      l-4,9l2,11l15,1h11l12,1h22l4-1h5h9l17-2l12-4l2-2v-1h1h2l6-2l7-6l3-4l1-2l2-1v-34l-7-8l-8-5l-10-5l-11-2l-14-2l-15,1l-17,2      l-19,5L4566,1276z"
   id="path594" />

  </g>

  <g
   transform="matrix(5.000000e-2,0.000000,0.000000,5.000000e-2,43.00525,34.51043)"
   id="g595"
   style="font-size:12;fill:none;">
    <path
   style="fill-rule:evenodd;fill:#FF9F9F;"
   d="M4560,1342l2,3l4,4l9,7l5,2l7,3l7,2l9,3l17,3l21,3h11l13,1l27,1l-16-56l-2,1      l-1,2l-3,4l-7,6l-6,2h-2h-1v1l-2,2l-12,4l-17,2h-9h-5l-4,1h-22l-12-1H4560z"
   id="path596" />

  </g>

  <g
   transform="matrix(5.000000e-2,0.000000,0.000000,5.000000e-2,43.00525,34.51043)"
   id="g597"
   style="font-size:12;fill:none;">
    <path
   style="fill-rule:evenodd;fill:#003366;"
   d="M4394,1310l36-3l15,6l44-49l4,32v4l15,1l10-36l-7-41l-66-23l-48,25l-13,15      l-1,69H4394z M4419,1287l-10-15l46-43l11,4L4419,1287z"
   id="path598" />

  </g>

  <g
   transform="matrix(5.000000e-2,0.000000,0.000000,5.000000e-2,43.00525,34.51043)"
   id="g599"
   style="font-size:12;fill:none;">
    <path
   style="fill-rule:evenodd;fill:#FFCCCC;"
   d="M4409,1272l10,15l47-54l-11-4L4409,1272z"
   id="path600" />

  </g>

  <g
   transform="matrix(5.000000e-2,0.000000,0.000000,5.000000e-2,43.00525,34.51043)"
   id="g601"
   style="font-size:12;fill:none;">
    <path
   style="fill-rule:evenodd;fill:#FF9F9F;"
   d="M4430,1307l-36,3l48,22l11-4l10-4l16-8l5-6l4-4l3-6l2-4l-4-32l-44,49      L4430,1307z"
   id="path602" />

  </g>

  <g
   transform="matrix(5.000000e-2,0.000000,0.000000,5.000000e-2,43.00525,34.51043)"
   id="g603"
   style="font-size:12;fill:none;">
    <path
   style="fill-rule:evenodd;fill:#EFBA5A;"
   d="M4829,1394l-6,9h1L4829,1394z"
   id="path604" />

  </g>

  <g
   transform="matrix(5.000000e-2,0.000000,0.000000,5.000000e-2,43.00525,34.51043)"
   id="g605"
   style="font-size:12;fill:none;">
    <path
   style="fill-rule:evenodd;fill:#FF9F9F;"
   d="M4823,1403l6-9l7-20l6-18l2-10v-3l1-2l2-4l3-18l-7,12l-8,12l-10,11l-10,11      l-12,9l-13,10l-15,8l-15,8l-18,6l-18,6l-20,4l-20,5l-12,1l-11,2l-12,1l-11,2l-25,2l-25,2l-28-4l-25-3l-25-5l-22-4l-23-6l-20-6      l-19-7l-17-7l-18-9l-15-9l-14-10l-12-10l-12-12l-10-11l-9-13l-6-12l-3,14l1,15l5,30l5,14l7,15l9,14l11,16l32,7l32,8l31,6l32,6      l30,4l30,4l29,2l30,2h27h28l26-2l6-1h7h14l25-4l25-4l24-5l12-3l13-2L4823,1403z"
   id="path606" />

  </g>

  <g
   transform="matrix(5.000000e-2,0.000000,0.000000,5.000000e-2,43.00525,34.51043)"
   id="g607"
   style="font-size:12;fill:none;">
    <path
   style="fill-rule:evenodd;fill:#FFCCCC;"
   d="M5105,1773l-31-6l-26-1l-24,1l-19,5l-5,2h17l16,2l30,4l13,2l12,2l22,4l16,4      l7,2l6,2l8,4l6,4l22,64l3,4l11,20l9,20l9,24h43l-4-11l-5-10l-6-11l-4-6l-2-3l-1-2l-30-48h23l21,22l9,10l4,5l5,6l14,20l11,20h61      l-1-2l-55-57l18-15l17,17h65l-1-4l-4-5l-3-4l-6-8l-16-16l-10-9l-10-8l-22-16l-27-18l-8-5l-7-4l-15-8l-33-18l-18-9l-18-8h-34      l-4,9l-18,19L5105,1773z"
   id="path608" />

  </g>

  <g
   transform="matrix(5.000000e-2,0.000000,0.000000,5.000000e-2,43.00525,34.51043)"
   id="g609"
   style="font-size:12;fill:none;">
    <path
   style="fill-rule:evenodd;fill:#FFCCCC;"
   d="M4771,1763l-1-10l-47-28l-102,17l-28,31l-3-5h-61v4l-14,9h-14l-21,13l-19,14      l-17,14l-14,16l-13,15l-10,16l-9,16l-5,18l-4,2l-1,6h25l3-3l15-17l14-13l13-12l13-9l11-9l11-5l9-4l9-1l17,14l-72,69l-5,13h23      l61-64l13,15l-49,75l1,7h61l3-6l117-181v-26l27,7l5,2H4771z"
   id="path610" />

  </g>

  <g
   transform="matrix(5.000000e-2,0.000000,0.000000,5.000000e-2,43.00525,34.51043)"
   id="g611"
   style="font-size:12;fill:none;">
    <path
   style="fill-rule:evenodd;fill:#FF9F9F;"
   d="M4772,1790l-1-27h-58L4772,1790z"
   id="path612" />

  </g>

  <g
   transform="matrix(5.000000e-2,0.000000,0.000000,5.000000e-2,43.00525,34.51043)"
   id="g613"
   style="font-size:12;fill:none;">
    <path
   style="fill-rule:evenodd;fill:#FF9F9F;"
   d="M5144,1822l16,23l1,2l2,3l4,6l8,12l-22-64l-6-4l-8-4l-6-2l-7-2l-16-4l-22-4      l-12-2l-13-2l-30-4l-16-2h-17l-7,2l-3,2l-3,2l1,4l1,2l5,4l5,2l9,4l9,2l13,4l13,2l17,4l17,2l21,4l21,4L5144,1822z"
   id="path614" />

  </g>

  <g
   transform="matrix(5.000000e-2,0.000000,0.000000,5.000000e-2,43.00525,34.51043)"
   id="g615"
   style="font-size:12;fill:none;">
    <path
   style="fill-rule:evenodd;fill:#FF9F9F;"
   d="M5250,1936h-43l6,30l3,31l10-5l4-3l5-2l3-4l4-3l5-6l3-8l2-8l-1-10l-1-10V1936z      "
   id="path616" />

  </g>

  <g
   transform="matrix(5.000000e-2,0.000000,0.000000,5.000000e-2,43.00525,34.51043)"
   id="g617"
   style="font-size:12;fill:none;">
    <path
   style="fill-rule:evenodd;fill:#FF9F9F;"
   d="M5285,1928l8,22l2,10v5l1,6h13l6-1h6l4-2l2-1h3l8-4l2-4l1-2l2-1l3-8v-5l1-4      l-1-6v-5H5285z"
   id="path618" />

  </g>

  <g
   transform="matrix(5.000000e-2,0.000000,0.000000,5.000000e-2,43.00525,34.51043)"
   id="g619"
   style="font-size:12;fill:none;">
    <path
   style="fill-rule:evenodd;fill:#FF9F9F;"
   d="M5372,1919l21-30l-1-8l-2-10h-65L5372,1919z"
   id="path620" />

  </g>

  <g
   transform="matrix(5.000000e-2,0.000000,0.000000,5.000000e-2,43.00525,34.51043)"
   id="g621"
   style="font-size:12;fill:none;">
    <path
   style="fill-rule:evenodd;fill:#CF7E2E;"
   d="M4466,1554h-39l102,196v18h61l-126-167l2-36V1554z"
   id="path622" />

  </g>

  <g
   transform="matrix(5.000000e-2,0.000000,0.000000,5.000000e-2,43.00525,34.51043)"
   id="g623"
   style="font-size:12;fill:none;">
    <path
   style="fill-rule:evenodd;fill:#FF9F9F;"
   d="M4474,1934h-23l-1,2l-11,27l23,28l2-47L4474,1934z"
   id="path624" />

  </g>

  <g
   transform="matrix(5.000000e-2,0.000000,0.000000,5.000000e-2,43.00525,34.51043)"
   id="g625"
   style="font-size:12;fill:none;">
    <path
   style="fill-rule:evenodd;fill:#FF9F9F;"
   d="M4413,1911h-25l-2,8l-1,12l-1,15l1,20l17,10l7-44l-4-12L4413,1911z"
   id="path626" />

  </g>

  <g
   transform="matrix(5.000000e-2,0.000000,0.000000,5.000000e-2,43.00525,34.51043)"
   id="g627"
   style="font-size:12;fill:none;">
    <path
   style="fill-rule:evenodd;fill:#FF9F9F;"
   d="M4500,1967l4,43l45-17l12-26H4500z"
   id="path628" />

  </g>

  <g
   transform="matrix(5.000000e-2,0.000000,0.000000,5.000000e-2,43.00525,34.51043)"
   id="g629"
   style="font-size:12;fill:none;">
    <path
   style="fill-rule:evenodd;fill:#FF9F9F;"
   d="M5047,1180l4-16l2-14l-2-16l-3-14l-35-1l-30,2l-27,3l-23,6l-21,6l-16,9l-14,10      l-9,13l8,12l33-11l30-7l26-5l23-1l18,1l16,5l12,7L5047,1180z"
   id="path630" />

  </g>

  <g
   transform="matrix(5.000000e-2,0.000000,0.000000,5.000000e-2,43.00525,34.51043)"
   id="g631"
   style="font-size:12;fill:none;">
    <path
   style="fill-rule:evenodd;fill:#CF7E2E;"
   d="M4781,1093l13,11l31,42l83-44l16-6l16-3l17-1l18,1l17,3l18,6l18,7l20,11l-5-12      l-6-10l-7-9l-8-7l-10-8l-10-6l-12-5l-13-3l-15-4l-16-2l-17-1l-18,1l-20,1l-21,3l-22,3l-23,5L4781,1093z"
   id="path632" />

  </g>

  <g
   transform="matrix(5.000000e-2,0.000000,0.000000,5.000000e-2,43.00525,34.51043)"
   id="g633"
   style="font-size:12;fill:none;">
    <path
   style="fill-rule:evenodd;fill:#FFCCCC;"
   d="M4900,1280l25-4l23-12l21-12l18-12l8-6l4-3l5-2l6-7l7-6l13-12l9-12l8-12l-8-11      l-12-7l-16-5l-18-1l-23,1l-26,5l-30,7l-33,11l19,31l-19,18L4900,1280z"
   id="path634" />

  </g>

  <g
   transform="matrix(5.000000e-2,0.000000,0.000000,5.000000e-2,43.00525,34.51043)"
   id="g635"
   style="font-size:12;fill:none;">
    <path
   style="fill-rule:evenodd;fill:#FE775A;"
   d="M4783,1159l-1-9l-8,12l-4,5l-3,6l-8,9l-7,8l-9,6l-8,5l-8,3l-8,2h-18l-18-1      l-36-4l-6-2l-2-1h-1h-2l-10-4l-6-3l-5-2l-6-3l-5-2l-7-4l-6-3l-12-7l-14-9l-4-3l-3-2l-6-4l5,7l8,8l10,8l13,9l15,8l18,9l21,10      l24,10l14,5l14,4l6,1l7,2l13,2h10h10l9-2l4-2l2-1h3l6-5l6-6l2-4l1-2l2-1l4-8l2-10l2-10v-12V1159z"
   id="path636" />

  </g>

  <g
   transform="matrix(5.000000e-2,0.000000,0.000000,5.000000e-2,43.00525,34.51043)"
   id="g637"
   style="font-size:12;fill:none;">
    <path
   style="fill-rule:evenodd;fill:#FFFFFF;"
   d="M4589,1098l2-15l-2-11l-22-10l-19-6l-18-4h-15l-15,2l-11,5l-11,8l-7,11l-2,5v6      l2,10l5,9l8,8l10,6l14,6l16,4l20,4l6-1l-2,8l4,9l6,4l3,2l4,3l14,9l12,7l6,3l7,4l5,2l6,3l5,2l6,3l10,4h2h1l2,1l6,2l36,4l18,1h18      l8-2l8-3l8-5l9-6l7-8l8-9l3-6l4-5l8-12l-4-9l-5-7l-12-13l-9-6l-9-4l-10-4l-11-3l-13-4l-14-2l-15-2l-16-1l-18-1l-18,1l-19,1      L4589,1098z M4642,1116l3,4l3,6l4,13l-1,8l-3,8l-6,8l-2,1l-2,3h-2h-1v1l-2,2h-3l-2,1l-7,1h-2l-8-1l-6-2l-6-3l-4-3l-5-6l-2-5      l-2-12v-1l2-13l2-6l5-4l9-8l5-2h7h3h6l6,2l5,3L4642,1116z M4569,1086l4,7l2,9v4l-6,12l-6,3l-6,3h-4l-6-2l-4-1l-6-3l-5-8l-1-8      l1-9l5-7l7-5l9-1l8,1L4569,1086z"
   id="path638" />

  </g>

  <g
   transform="matrix(5.000000e-2,0.000000,0.000000,5.000000e-2,43.00525,34.51043)"
   id="g639"
   style="font-size:12;fill:none;">
    <path
   style="fill-rule:evenodd;fill:#003366;"
   d="M4652,1139l-4-13l-3-6l-3-4l-6-5l-5-3l-6-2h-6h-3h-7l-5,2l-9,8l-5,4l-2,6      l-2,13v1l2,12l2,5l5,6l4,3l6,3l6,2l8,1h2l7-1l6-3l6-4l2-1l6-8l3-8L4652,1139z"
   id="path640" />

  </g>

  <g
   transform="matrix(5.000000e-2,0.000000,0.000000,5.000000e-2,43.00525,34.51043)"
   id="g641"
   style="font-size:12;fill:none;">
    <path
   style="fill-rule:evenodd;fill:#003366;"
   d="M4575,1102l-2-9l-4-7l-8-5l-8-1l-9,1l-7,5l-5,7l-1,9l1,8l5,8l6,3l4,1l6,2h4      l6-3l6-3l6-12V1102z"
   id="path642" />

  </g>

  <g
   transform="matrix(5.000000e-2,0.000000,0.000000,5.000000e-2,43.00525,34.51043)"
   id="g643"
   style="font-size:12;fill:none;">
    <path
   style="fill-rule:evenodd;fill:#FE775A;"
   d="M4471,1078l-1,1l-11,11l-5,10l1,10l5,8l4,4l7,5l4,3l6,4l7,2l9,2h9h12l12-1      l14-1l-20-4l-16-4l-14-6l-10-6l-8-8l-5-9l-2-10v-6L4471,1078z"
   id="path644" />

  </g>

  
  
  
  
  
  
  
  
  
  
  
  
  
  
  
  
  
  
  
  
  
  
  
  
  
  
  
  
  
  
  
  
  
  
  
  
  
  
  
  
  
  
  
  
  
  
  
  
  
  
  
</g>
</svg>
