<?xml version="1.0" encoding="UTF-8" standalone="no"?>
<!DOCTYPE svg PUBLIC "-//W3C//DTD SVG 20010904//EN"
"http://www.w3.org/TR/2001/REC-SVG-20010904/DTD/svg10.dtd">
<!-- Created with Sodipodi ("http://www.sodipodi.com/") -->
<svg
   id="svg744"
   sodipodi:version="0.33"
   width="16pt"
   height="16pt"
   sodipodi:docbase="/home/lolo/cvs/monkey-bubble/pixmaps/bubbles/"
   sodipodi:docname="/home/lolo/cvs/monkey-bubble/pixmaps/bubbles/little_bubble_03.svg"
   xmlns="http://www.w3.org/2000/svg"
   xmlns:sodipodi="http://sodipodi.sourceforge.net/DTD/sodipodi-0.dtd"
   xmlns:xlink="http://www.w3.org/1999/xlink">
  <defs
     id="defs746" />
  <sodipodi:namedview
     id="base" />
  <g
     id="g598"
     transform="matrix(1.013652,0,0,1.013652,-0.137535,-0.137534)">
    <path
       fill="#E6E617"
       d="M 16.23757 3.907566 C 16.34314 4.013143 16.44502 4.122568 16.54690 4.231917 C 18.04429 5.868841 18.79103 7.815099 18.79103 10.07439 C 18.79103 12.48077 17.93864 14.53637 16.23757 16.23745 C 14.53648 17.93851 12.48094 18.79098 10.07448 18.79098 C 7.668025 18.79098 5.612484 17.93851 3.907557 16.23745 C 3.066414 15.39631 2.436575 14.46852 2.010344 13.45766 C 1.576640 12.42039 1.357865 11.29263 1.357865 10.07439 C 1.357865 7.667941 2.206479 5.612333 3.907557 3.907490 C 5.612484 2.206420 7.668025 1.357733 10.07448 1.357733 C 12.48094 1.357733 14.53648 2.206494 16.23757 3.907566 z "
       id="path606"
       style="font-size:12.000;fill:#e6e617;" />
    <path
       fill="#cdba05"
       d="M 15.03003 5.118788 L 5.118858 5.118788 L 5.118858 15.02992 L 15.03003 15.02992 L 15.03003 5.118788 z "
       id="path607"
       style="font-size:12.000;fill:#cdba05;fill-opacity:1.0000;" />
    <path
       opacity="0.51"
       fill="#FFFFFF"
       d="M 9.327445 6.146479 C 9.327445 5.312885 9.033278 4.603811 8.444872 4.015406 C 7.856463 3.430773 7.147385 3.136534 6.317562 3.136534 C 5.487888 3.136534 4.778736 3.430698 4.190328 4.015406 C 3.605617 4.603811 3.311452 5.312885 3.311452 6.146479 C 3.311452 6.976298 3.605617 7.685373 4.190328 8.270006 C 4.778736 8.858411 5.487813 9.152576 6.317562 9.152576 C 7.147385 9.152576 7.856539 8.858411 8.444872 8.270006 C 9.033204 7.685373 9.327445 6.976298 9.327445 6.146479 z "
       id="path608"
       style="font-size:12.000;opacity:0.510000;fill:#ffffff;" />
    <path
       fill="#FFFFFF"
       d="M 7.049053 5.767340 C 7.045356 5.439215 6.932157 5.160068 6.702060 4.929974 C 6.471966 4.699879 6.192816 4.582983 5.864691 4.582983 C 5.536565 4.582983 5.257416 4.699879 5.027321 4.929974 C 4.797225 5.160068 4.680328 5.439215 4.684026 5.767340 C 4.680328 6.095464 4.797225 6.374611 5.027321 6.604706 C 5.257416 6.834726 5.536565 6.947924 5.864691 6.951697 C 6.192816 6.947924 6.471966 6.834726 6.702060 6.604706 C 6.932233 6.374535 7.045430 6.095464 7.049053 5.767340 z "
       id="path609"
       style="font-size:12.000;fill:#ffffff;" />
    <path
       opacity="0.19"
       d="M 16.54690 4.231992 C 16.98059 5.269267 17.19937 6.396949 17.19937 7.615267 C 17.19937 10.02164 16.34692 12.07724 14.64583 13.77832 C 12.94475 15.47939 10.88921 16.33177 8.482754 16.33177 C 6.076297 16.33177 4.020756 15.47939 2.315829 13.77832 C 2.210328 13.66890 2.108450 13.56332 2.010344 13.45766 C 2.436500 14.46852 3.066414 15.39638 3.907557 16.23745 C 5.612484 17.93851 7.668025 18.79090 10.07440 18.79090 C 12.48087 18.79090 14.53648 17.93851 16.23757 16.23745 C 17.93864 14.53637 18.79103 12.48077 18.79103 10.07439 C 18.79103 7.815174 18.04429 5.868915 16.54690 4.231992 z "
       id="path610"
       style="font-size:12.000;opacity:0.190000;" />
    <path
       d="M 14.46480 1.274872 C 13.14089 0.603530 11.67738 0.267782 10.07440 0.267782 C 7.366237 0.267782 5.054186 1.225819 3.138107 3.138118 C 1.225800 5.054190 0.267759 7.366230 0.267759 10.07439 C 0.267759 10.27052 0.271533 10.46288 0.282778 10.65524 C 0.411069 13.11445 1.361562 15.23042 3.138107 17.00697 C 5.054186 18.92304 7.366237 19.88107 10.07440 19.88107 C 12.78259 19.88107 15.09456 18.92304 17.00686 17.00697 C 18.92302 15.09467 19.88105 12.78255 19.88105 10.07446 C 19.88105 7.366380 18.92302 5.054265 17.00686 3.138193 C 16.22616 2.357351 15.37755 1.734985 14.46480 1.274872 z M 16.23748 3.907566 C 16.34306 4.013143 16.44495 4.122568 16.54682 4.231917 C 18.04421 5.868841 18.79095 7.815099 18.79095 10.07439 C 18.79095 12.48077 17.93856 14.53637 16.23748 16.23745 C 14.53641 17.93851 12.48087 18.79090 10.07440 18.79090 C 7.667950 18.79090 5.612408 17.93851 3.907482 16.23745 C 3.066338 15.39631 2.436500 14.46845 2.010267 13.45766 C 1.576565 12.42039 1.357789 11.29272 1.357789 10.07439 C 1.357789 7.668017 2.206403 5.612408 3.907482 3.907566 C 5.612408 2.206494 7.667950 1.357808 10.07440 1.357808 C 12.48087 1.357808 14.53641 2.206494 16.23748 3.907566 z "
       id="path611"
       style="font-size:12.000;" />
  </g>
</svg>
