<?xml version="1.0" encoding="UTF-8" standalone="no"?>
<!DOCTYPE svg PUBLIC "-//W3C//DTD SVG 20010904//EN"
"http://www.w3.org/TR/2001/REC-SVG-20010904/DTD/svg10.dtd">
<!-- Created with Sodipodi ("http://www.sodipodi.com/") -->
<svg
   version="1.0"
   x="0"
   y="0"
   width="16.000000pt"
   height="16.000000pt"
   id="svg797"
   xmlns="http://www.w3.org/2000/svg"
   xmlns:sodipodi="http://sodipodi.sourceforge.net/DTD/sodipodi-0.dtd"
   xmlns:inkscape="http://www.inkscape.org/namespaces/inkscape"
   xmlns:xlink="http://www.w3.org/1999/xlink"
   sodipodi:version="0.32"
   inkscape:version="0.39cvs"
   sodipodi:docname="little_bubble_01.svg"
   sodipodi:docbase="/home/laurentb/cvs/monkey-bubble/pixmaps/bubbles">
  <sodipodi:namedview
     id="base"
     pagecolor="#ffffff"
     bordercolor="#666666"
     borderopacity="1.0"
     inkscape:pageopacity="0.0"
     inkscape:pageshadow="2"
     inkscape:zoom="6.4813452"
     inkscape:cx="17.943571"
     inkscape:cy="10.453618"
     inkscape:window-width="640"
     inkscape:window-height="493"
     inkscape:window-x="10"
     inkscape:window-y="67" />
  <defs
     id="defs799" />
  <g
     id="g908"
     transform="matrix(0.363191,0.000000,0.000000,0.363191,52.36675,43.97355)">
    <path
       d="M -99.076030,-110.69465 C -98.779330,-110.39795 -98.493018,-110.09043 -98.206705,-109.78312 C -93.998536,-105.18283 -91.899972,-99.713204 -91.899972,-93.363856 C -91.899972,-86.601163 -94.295459,-80.824234 -99.076030,-76.043681 C -103.85662,-71.263110 -109.63336,-68.867417 -116.39629,-68.867417 C -123.15923,-68.867417 -128.93597,-71.263110 -133.72737,-76.043681 C -136.09125,-78.407560 -137.86131,-81.014897 -139.05916,-83.855751 C -140.27800,-86.770845 -140.89283,-89.940214 -140.89283,-93.363856 C -140.89283,-100.12677 -138.50795,-105.90370 -133.72737,-110.69487 C -128.93597,-115.47543 -123.15923,-117.86052 -116.39629,-117.86052 C -109.63336,-117.86052 -103.85662,-115.47522 -99.076030,-110.69465 z "
       style="fill:#936190;"
       id="path640" />
    <g
       id="g651"
       transform="matrix(0.172249,0.000000,0.000000,0.172249,-143.9564,-120.9236)">
      <path
         d="M 114.44360,190.49320 L 114.44360,37.817730 L 205.55700,37.817730 L 205.55700,190.49320 L 114.44360,190.49320 z "
         style="fill:#d867b6;"
         id="path645" />
      <ellipse
         cx="1864.7729"
         cy="211.18320"
         rx="39.224979"
         ry="34.984379"
         transform="matrix(1.231262,0.000000,0.000000,1.231257,-2136.023,-12.43774)"
         style="fill:#d867b6;fill-rule:evenodd;"
         id="path866"
         d="M 1903.9979 211.18320 A 39.224979 34.984379 0 1 0 1825.5480,211.18320 A 39.224979 34.984379 0 1 0 1903.9979 211.18320 z"
         sodipodi:cx="1864.7729"
         sodipodi:cy="211.18320"
         sodipodi:rx="39.224979"
         sodipodi:ry="34.984379" />
    </g>
    <path
       d="M -118.49570,-104.40257 C -118.49570,-106.74524 -119.32240,-108.73797 -120.97602,-110.39159 C -122.62964,-112.03459 -124.62238,-112.86151 -126.95445,-112.86151 C -129.28610,-112.86151 -131.27905,-112.03481 -132.93267,-110.39159 C -134.57590,-108.73797 -135.40260,-106.74524 -135.40260,-104.40257 C -135.40260,-102.07051 -134.57590,-100.07777 -132.93267,-98.434767 C -131.27905,-96.781156 -129.28631,-95.954456 -126.95445,-95.954456 C -124.62238,-95.954456 -122.62942,-96.781156 -120.97602,-98.434767 C -119.32261,-100.07777 -118.49570,-102.07051 -118.49570,-104.40257 z "
       style="opacity:0.38999996;fill:#ffffff;"
       id="path641" />
    <path
       d="M -124.89872,-105.46808 C -124.90911,-106.39021 -125.22724,-107.17471 -125.87388,-107.82135 C -126.52053,-108.46799 -127.30503,-108.79651 -128.22717,-108.79651 C -129.14931,-108.79651 -129.93381,-108.46799 -130.58045,-107.82135 C -131.22709,-107.17471 -131.55561,-106.39021 -131.54522,-105.46808 C -131.55561,-104.54594 -131.22709,-103.76145 -130.58045,-103.11480 C -129.93381,-102.46838 -129.14931,-102.15025 -128.22717,-102.13965 C -127.30503,-102.15025 -126.52053,-102.46838 -125.87388,-103.11480 C -125.22703,-103.76166 -124.90890,-104.54594 -124.89872,-105.46808 z "
       style="fill:#ffffff;"
       id="path642" />
    <path
       d="M -98.206688,-109.78291 C -96.987840,-106.86783 -96.373011,-103.69867 -96.373011,-100.27480 C -96.373011,-93.512108 -98.768710,-87.735177 -103.54929,-82.954613 C -108.32988,-78.174049 -114.10662,-75.778570 -120.86955,-75.778570 C -127.63248,-75.778570 -133.40922,-78.174049 -138.20062,-82.954613 C -138.49712,-83.262133 -138.78343,-83.558838 -139.05914,-83.855754 C -137.86150,-81.014902 -136.09124,-78.407340 -133.72735,-76.043674 C -128.93595,-71.263110 -123.15921,-68.867632 -116.39649,-68.867632 C -109.63356,-68.867632 -103.85660,-71.263110 -99.076019,-76.043674 C -94.295435,-80.824239 -91.899948,-86.601169 -91.899948,-93.363862 C -91.899948,-99.712992 -93.998519,-105.18261 -98.206688,-109.78291 z "
       style="opacity:0.34000000;"
       id="path643" />
    <path
       d="M -104.05808,-118.09338 C -107.77867,-119.98007 -111.89161,-120.92363 -116.39649,-120.92363 C -124.00733,-120.92363 -130.50495,-118.23124 -135.88976,-112.85705 C -141.26396,-107.47226 -143.95637,-100.97467 -143.95637,-93.363862 C -143.95637,-92.812658 -143.94577,-92.272058 -143.91417,-91.731458 C -143.55362,-84.820308 -140.88243,-78.873711 -135.88976,-73.881064 C -130.50495,-68.496275 -124.00733,-65.803880 -116.39649,-65.803880 C -108.78565,-65.803880 -102.28824,-68.496275 -96.914037,-73.881064 C -91.529013,-79.255249 -88.836608,-85.753049 -88.836608,-93.363649 C -88.836608,-100.97425 -91.529013,-107.47205 -96.914037,-112.85684 C -99.108044,-115.05126 -101.49293,-116.80031 -104.05808,-118.09338 z M -99.076231,-110.69465 C -98.779527,-110.39795 -98.493212,-110.09043 -98.206900,-109.78312 C -93.998731,-105.18283 -91.900160,-99.713204 -91.900160,-93.363862 C -91.900160,-86.601169 -94.295649,-80.824239 -99.076231,-76.043674 C -103.85682,-71.263110 -109.63356,-68.867632 -116.39649,-68.867632 C -123.15942,-68.867632 -128.93616,-71.263110 -133.72756,-76.043674 C -136.09145,-78.407552 -137.86150,-81.015114 -139.05935,-83.855754 C -140.27820,-86.770836 -140.89303,-89.939993 -140.89303,-93.363862 C -140.89303,-100.12655 -138.50815,-105.90348 -133.72756,-110.69465 C -128.93616,-115.47522 -123.15942,-117.86030 -116.39649,-117.86030 C -109.63356,-117.86030 -103.85682,-115.47522 -99.076231,-110.69465 z "
       id="path644" />
  </g>
</svg>
